<?xml version="1.0" standalone="no"?>
<!DOCTYPE svg PUBLIC "-//W3C//DTD SVG 20010904//EN"
 "http://www.w3.org/TR/2001/REC-SVG-20010904/DTD/svg10.dtd">
<svg version="1.0" xmlns="http://www.w3.org/2000/svg"
 width="576.000000pt" height="873.000000pt" viewBox="0 0 576.000000 873.000000"
 preserveAspectRatio="xMidYMid meet">

<g transform="translate(0.000000,873.000000) scale(0.100000,-0.100000)"
fill="#000000" stroke="none">
<path d="M2935 7089 c-27 -6 -65 -17 -82 -25 -19 -8 -77 -17 -135 -21 -57 -3
-110 -11 -118 -18 -8 -6 -35 -19 -60 -27 -220 -73 -206 -66 -262 -135 -34 -41
-62 -66 -79 -70 -41 -8 -92 -59 -84 -83 5 -14 -6 -39 -34 -81 -36 -54 -40 -65
-35 -103 5 -31 2 -47 -9 -58 -24 -23 -48 -143 -45 -220 2 -37 6 -68 11 -68 4
0 5 -11 1 -24 -3 -14 -3 -30 2 -37 4 -6 8 -44 10 -83 2 -39 6 -90 10 -114 4
-29 2 -47 -7 -59 -19 -22 -16 -175 3 -227 l14 -39 22 69 c17 53 22 94 22 172
0 110 11 148 55 187 23 21 118 174 135 219 15 40 82 122 110 134 14 7 45 25
70 42 95 63 102 65 193 54 45 -6 109 -7 142 -3 48 5 78 2 150 -18 125 -34 135
-38 222 -98 115 -79 176 -131 206 -175 17 -25 37 -49 44 -53 7 -4 13 -17 13
-28 0 -11 9 -37 20 -59 11 -22 20 -46 20 -55 0 -29 52 -120 94 -163 l41 -43 0
-184 c0 -229 13 -255 71 -136 20 41 127 159 166 184 16 9 35 17 43 17 8 0 15
6 15 13 0 11 15 97 41 237 17 86 19 335 5 431 -8 54 -22 102 -36 125 -64 107
-93 143 -149 184 -34 25 -61 48 -61 52 0 5 -5 8 -11 8 -5 0 -7 -5 -3 -11 4 -8
1 -8 -12 -1 -16 8 -90 21 -141 24 -7 1 -13 12 -13 24 0 13 -4 26 -10 29 -5 3
-14 23 -20 44 -24 90 -128 221 -176 221 -7 0 -30 9 -51 20 -70 35 -211 48
-318 29z m-861 -533 c-6 -16 -24 -23 -24 -8 0 10 22 33 27 28 2 -2 1 -11 -3
-20z"/>
<path d="M2172 5970 c-30 -19 -61 -64 -51 -75 3 -2 44 -9 92 -14 75 -9 97 -16
158 -52 80 -48 175 -130 184 -160 4 -10 10 -17 15 -14 13 8 -21 127 -47 161
-13 17 -23 35 -23 40 0 10 -78 72 -115 91 -24 13 -139 43 -163 43 -9 0 -32 -9
-50 -20z"/>
<path d="M2875 5826 c-17 -7 -36 -20 -43 -28 -11 -14 1 -16 115 -16 70 1 136
4 146 7 16 6 16 8 -3 29 -18 19 -31 22 -103 22 -45 -1 -96 -7 -112 -14z"/>
<path d="M3172 5823 c2 -10 14 -19 28 -21 14 -2 32 -10 40 -17 15 -13 102 -46
108 -40 1 1 -2 13 -7 27 -7 20 -23 29 -73 42 -34 10 -71 20 -81 23 -14 4 -18
0 -15 -14z"/>
<path d="M2165 5731 c-16 -32 -16 -34 4 -55 17 -18 41 -26 104 -34 111 -16
207 -20 207 -10 0 29 -35 70 -76 89 -37 16 -62 20 -123 17 -57 -2 -79 1 -87
11 -10 12 -14 9 -29 -18z m159 -47 c4 -15 5 -29 2 -32 -10 -10 -45 29 -39 44
9 23 30 16 37 -12z"/>
<path d="M2950 5649 c-28 -12 -70 -48 -70 -61 0 -5 8 -5 18 0 9 5 23 7 30 5 7
-3 12 4 12 16 0 16 6 21 29 21 23 0 30 -5 33 -25 5 -21 1 -25 -21 -26 -19 0
-13 -4 23 -15 29 -9 51 -12 55 -6 6 9 16 10 134 14 l58 2 -23 19 c-66 52 -215
83 -278 56z"/>
<path d="M3846 5581 c5 -5 23 -12 39 -16 29 -6 29 -6 11 9 -21 17 -67 23 -50
7z"/>
<path d="M3717 5446 c-7 -18 28 -52 38 -37 9 16 -4 51 -20 51 -7 0 -15 -6 -18
-14z"/>
<path d="M2410 5193 c0 -52 110 -91 175 -63 11 5 15 9 9 9 -6 1 -30 19 -55 41
-45 40 -74 50 -82 28 -4 -10 -7 -10 -18 0 -20 19 -29 14 -29 -15z"/>
<path d="M2658 5193 c-35 -9 -26 -28 16 -30 22 -1 51 -5 64 -8 26 -6 29 7 6
29 -15 15 -49 19 -86 9z"/>
<path d="M2285 4990 c-18 -20 -18 -21 13 -53 18 -18 32 -36 32 -40 0 -5 12
-20 26 -35 25 -26 26 -26 21 -4 -5 22 7 30 18 12 12 -19 25 -10 19 14 -5 23
-5 23 38 14 24 -6 84 -11 133 -13 69 -3 79 -2 40 4 -27 5 -77 22 -110 40 -33
18 -82 35 -110 38 -27 3 -57 11 -65 18 -29 24 -38 24 -55 5z"/>
<path d="M2905 4905 c-5 -2 -41 -7 -80 -12 l-70 -8 110 -5 c61 -3 112 -4 114
-2 17 10 -52 35 -74 27z"/>
<path d="M3285 4562 c-29 -25 -348 -137 -435 -153 -70 -13 -253 2 -266 22 -3
5 -20 9 -37 9 -18 0 -41 7 -51 15 -11 8 -30 15 -43 15 -13 0 -49 19 -79 41
-30 23 -57 40 -59 37 -3 -3 6 -27 20 -54 27 -54 32 -89 12 -101 -13 -9 -32
-44 -42 -79 -7 -27 21 -157 45 -204 10 -19 27 -44 39 -54 12 -11 21 -24 21
-31 0 -6 18 -29 41 -50 22 -22 45 -50 50 -62 5 -13 16 -23 26 -23 15 0 18 9
19 55 0 39 6 61 20 76 16 18 19 35 17 110 l-2 88 37 7 c20 4 64 24 96 45 33
22 67 39 76 39 8 0 24 6 35 13 11 8 40 22 65 32 113 45 139 53 143 42 2 -6 26
2 58 20 30 17 74 42 99 55 25 13 56 34 70 45 14 12 34 29 45 37 16 12 17 15 5
16 -9 0 -20 -4 -25 -8z"/>
<path d="M3422 4485 c0 -68 0 -69 14 -38 11 27 11 37 -1 70 l-14 38 1 -70z"/>
<path d="M3530 4463 c0 -5 10 -36 22 -68 32 -88 27 -149 -20 -290 -22 -66 -54
-148 -71 -182 -17 -34 -33 -75 -37 -90 -4 -15 -24 -65 -46 -110 -21 -45 -38
-87 -38 -93 0 -7 -20 -48 -45 -92 -25 -44 -45 -86 -45 -93 0 -8 -18 -47 -40
-87 -22 -40 -40 -78 -40 -85 0 -6 -18 -50 -40 -97 -22 -47 -40 -90 -40 -95 0
-8 -59 -142 -81 -183 -5 -10 -9 -24 -9 -32 0 -8 -13 -43 -28 -78 -16 -34 -39
-92 -52 -128 -12 -36 -38 -96 -56 -134 -19 -37 -34 -74 -34 -82 0 -7 -15 -46
-34 -87 -18 -40 -41 -95 -50 -123 -16 -49 -63 -129 -52 -89 12 45 56 337 56
375 0 48 -2 48 -85 -25 -32 -27 -65 -54 -74 -59 -17 -9 97 103 134 131 13 10
26 28 30 41 l7 23 -25 -23 c-42 -38 -131 -118 -150 -134 -10 -8 -22 -14 -27
-12 -5 2 38 44 94 95 80 70 105 99 110 124 10 54 20 322 12 363 l-7 37 -46
-51 c-59 -65 -191 -172 -198 -160 -3 5 5 16 18 25 56 36 206 194 212 222 3 16
2 21 -2 12 -14 -29 -126 -149 -139 -149 -7 0 -19 -8 -26 -18 -12 -17 -58 -48
-58 -39 0 2 50 53 110 114 114 116 122 130 96 181 -16 32 -16 177 0 207 6 11
14 31 18 45 3 14 17 39 31 55 23 28 30 30 117 36 51 3 109 12 128 20 l34 15
-54 18 c-30 10 -77 22 -105 26 -27 4 -87 18 -133 30 -68 19 -86 21 -105 11
-16 -8 -30 -9 -47 -2 l-25 10 28 0 c32 1 35 16 6 32 -15 7 -66 10 -153 7 -129
-4 -151 -9 -238 -56 -13 -7 -20 40 -9 66 5 15 15 119 22 232 6 113 14 235 16
273 3 37 1 67 -3 67 -4 0 -20 -11 -34 -25 -16 -15 -70 -40 -126 -60 -54 -19
-121 -45 -149 -59 -27 -14 -59 -26 -70 -26 -11 0 -72 -18 -135 -40 -63 -22
-126 -40 -140 -40 -14 0 -51 -9 -83 -20 -31 -11 -71 -20 -89 -20 -33 0 -150
-19 -263 -41 -62 -12 -235 -63 -270 -79 -11 -4 -36 -11 -56 -15 -78 -12 -174
-117 -200 -217 -23 -91 -40 -225 -34 -269 4 -37 -1 -63 -25 -125 -16 -43 -30
-89 -30 -102 0 -25 -43 -211 -65 -282 -47 -151 -72 -280 -79 -408 -3 -56 -9
-72 -50 -131 -51 -75 -86 -193 -86 -294 0 -40 -7 -72 -25 -109 -14 -28 -25
-56 -25 -62 0 -5 -9 -28 -19 -50 -45 -96 -59 -135 -75 -208 -10 -43 -30 -113
-45 -155 -16 -43 -31 -105 -35 -138 -4 -33 -18 -81 -31 -107 l-25 -48 0 -590
0 -590 372 2 372 3 33 105 c18 58 36 128 39 155 7 60 39 175 63 230 20 44 29
67 72 195 37 108 73 232 100 340 11 47 38 146 59 220 21 74 41 152 45 174 3
21 11 50 17 65 11 25 12 25 19 -19 4 -25 8 -112 9 -195 0 -82 5 -211 9 -285 7
-115 6 -147 -10 -220 -10 -47 -19 -113 -19 -147 0 -35 -6 -80 -14 -100 -24
-64 -85 -294 -95 -358 -5 -33 -14 -73 -20 -88 -6 -16 -11 -39 -11 -53 l0 -24
1589 0 c1505 0 1589 1 1593 17 2 10 1 88 -2 173 -6 145 -5 158 16 200 78 163
112 238 118 263 4 15 17 51 30 80 13 28 29 70 36 92 8 22 33 90 57 152 24 61
43 117 43 125 0 7 9 35 19 63 l19 50 15 -37 c9 -21 22 -64 31 -97 8 -32 29
-88 46 -123 16 -36 30 -70 30 -75 0 -6 20 -53 44 -104 24 -52 46 -106 50 -122
4 -15 22 -60 41 -99 19 -39 35 -77 35 -83 0 -7 14 -29 30 -50 42 -53 42 -128
0 -217 -16 -34 -30 -79 -30 -98 -1 -19 -7 -52 -14 -72 l-14 -38 469 0 469 0 0
644 0 644 -30 67 c-17 37 -37 101 -46 143 -24 117 -81 290 -120 365 -40 76
-56 154 -58 277 -1 79 -3 88 -33 129 -23 30 -33 55 -33 80 -1 77 -52 283 -97
389 -10 23 -12 49 -8 86 4 32 3 62 -3 73 -8 14 -6 45 5 109 26 147 -4 309 -69
374 -113 114 -168 140 -372 177 -16 3 -60 23 -97 44 -38 22 -73 39 -79 39 -6
0 -48 18 -93 41 -45 23 -120 56 -167 75 -47 19 -93 39 -102 44 -10 6 -23 10
-29 10 -6 0 -30 13 -53 28 -23 16 -95 54 -161 86 -70 33 -137 73 -160 96 -22
21 -53 45 -70 53 -33 17 -125 98 -125 111 0 4 -20 28 -45 53 -25 24 -45 49
-45 54 0 5 -7 17 -15 26 -8 10 -34 47 -57 82 -39 59 -68 86 -68 64z m-1077
-773 c3 -14 1 -20 -6 -17 -7 2 -14 14 -15 26 -4 28 13 20 21 -9z m45 4 c28 -2
33 -4 28 -13 -3 -5 -17 -8 -31 -8 -19 0 -25 5 -25 21 0 11 4 17 8 11 4 -5 13
-10 20 -11z m-80 -88 c13 -11 36 -43 50 -71 22 -43 26 -62 26 -141 0 -95 -10
-132 -52 -196 -14 -21 -28 -57 -33 -81 -4 -23 -21 -72 -38 -108 -16 -35 -37
-98 -45 -139 -9 -41 -29 -120 -45 -175 -63 -215 -117 -421 -133 -515 l-13 -75
-3 50 c-2 28 2 131 8 230 6 99 15 279 20 400 5 121 18 309 29 418 12 109 24
247 27 307 8 128 12 132 114 123 47 -4 72 -12 88 -27z m257 -13 c45 -62 44
-79 -1 -28 -43 48 -59 75 -44 75 5 0 25 -21 45 -47z m55 32 c-7 -8 -16 -12
-21 -9 -13 8 -1 24 18 24 13 0 13 -3 3 -15z m103 8 c-7 -2 -21 -2 -30 0 -10 3
-4 5 12 5 17 0 24 -2 18 -5z m-207 -41 c33 -33 63 -79 83 -127 2 -5 -14 13
-35 40 -21 28 -41 52 -44 55 -10 8 -52 70 -47 70 2 0 21 -17 43 -38z m179 18
c-11 -5 -27 -9 -35 -9 -13 -1 -13 0 0 9 8 5 24 9 35 9 l20 0 -20 -9z m-275
-360 c-11 -20 -30 -28 -30 -12 0 11 22 32 32 32 5 0 4 -9 -2 -20z m10 -804 c0
-2 -8 -10 -17 -17 -16 -13 -17 -12 -4 4 13 16 21 21 21 13z m1489 -202 c24 -5
31 -12 31 -30 0 -31 -24 -52 -68 -59 -20 -3 -62 -10 -92 -15 -137 -23 -620
-45 -620 -29 0 17 37 34 88 40 32 4 110 17 175 28 65 12 142 21 170 21 48 0
150 17 237 39 47 12 43 12 79 5z m-1945 -2178 c11 8 23 14 28 14 17 0 7 -20
-18 -36 -25 -17 -26 -16 -52 11 -27 27 -27 27 -2 12 22 -14 27 -14 44 -1z"/>
</g>
</svg>
