<?xml version="1.0" standalone="no"?>
<!DOCTYPE svg PUBLIC "-//W3C//DTD SVG 20010904//EN"
 "http://www.w3.org/TR/2001/REC-SVG-20010904/DTD/svg10.dtd">
<svg version="1.0" xmlns="http://www.w3.org/2000/svg"
 width="579.000000pt" height="872.000000pt" viewBox="0 0 579.000000 872.000000"
 preserveAspectRatio="xMidYMid meet">

<g transform="translate(0.000000,872.000000) scale(0.100000,-0.100000)"
fill="#000000" stroke="none">
<path d="M2630 7314 c-42 -4 -168 -20 -282 -35 -147 -20 -265 -86 -344 -190
-22 -30 -135 -182 -249 -339 -158 -215 -213 -297 -223 -335 -74 -261 -111
-475 -147 -833 -13 -130 -19 -160 -44 -210 -46 -91 -81 -209 -98 -327 -14 -93
-15 -128 -5 -225 22 -215 79 -368 194 -520 35 -46 70 -92 78 -103 14 -19 13
-19 -30 -11 -68 12 -89 8 -111 -20 -11 -14 -24 -24 -29 -21 -4 3 -11 -2 -14
-11 -9 -23 -8 -24 11 -17 17 7 17 5 0 -20 -15 -23 -15 -28 -3 -33 10 -4 14
-19 12 -50 -1 -24 1 -44 5 -44 22 0 34 -157 12 -162 -10 -2 -11 -8 0 -28 16
-32 21 -86 8 -94 -6 -4 -5 -16 4 -33 8 -15 11 -31 7 -37 -3 -6 -5 -23 -3 -38
1 -14 -2 -29 -7 -32 -9 -5 -9 -97 0 -113 3 -4 4 -26 1 -48 -5 -54 -5 -50 1
-140 6 -97 10 -118 22 -122 5 -2 9 -19 8 -38 -1 -19 3 -35 8 -35 7 0 6 -5 -1
-13 -6 -8 -8 -24 -5 -38 2 -13 7 -60 10 -104 3 -43 7 -81 9 -84 3 -2 0 -11 -7
-18 -8 -10 -8 -17 -2 -21 6 -4 10 -26 9 -49 -1 -24 1 -43 6 -43 4 0 5 -10 2
-22 -6 -27 -4 -80 3 -87 3 -3 9 1 14 9 11 19 17 12 22 -24 1 -16 -2 -31 -9
-33 -7 -3 -9 3 -6 16 4 14 1 21 -9 21 -21 0 -29 -11 -18 -25 5 -6 9 -22 8 -36
-2 -51 1 -64 14 -51 20 20 23 14 24 -38 0 -27 -3 -50 -8 -50 -7 0 -13 41 -9
63 1 5 -4 7 -11 5 -7 -3 -13 -18 -13 -34 0 -16 -4 -35 -9 -42 -5 -8 -4 -18 2
-24 6 -6 8 -17 5 -24 -3 -8 0 -21 7 -29 14 -17 7 -19 -19 -5 -13 7 -17 19 -16
47 1 21 -2 43 -7 50 -6 7 -6 19 1 31 12 23 9 51 -8 62 -9 5 -10 10 -2 14 13 8
5 67 -10 77 -6 3 -11 10 -12 15 -1 5 -12 8 -25 7 -12 -1 -20 2 -17 7 3 5 1 11
-5 15 -5 3 -10 11 -10 17 0 7 5 6 14 -1 9 -8 16 -8 20 -2 4 5 -1 14 -10 19
-11 6 -13 11 -5 16 15 10 14 29 -2 23 -15 -6 -40 40 -26 49 6 4 6 10 0 18 -6
6 -10 21 -9 31 1 25 -12 128 -18 137 -2 4 0 9 6 13 6 4 6 12 -2 24 -9 15 -6
25 15 53 17 22 25 43 22 58 -2 13 0 29 5 35 5 6 7 22 5 35 -2 13 0 29 5 36 8
8 5 14 -6 18 -13 5 -15 9 -6 18 16 16 15 31 -2 25 -16 -6 -30 30 -15 39 19 12
-11 31 -41 26 -21 -3 -30 0 -31 9 0 8 -2 22 -4 31 -2 9 -6 36 -9 59 -8 55 -21
69 -40 44 -8 -11 -12 -23 -9 -28 2 -4 -1 -14 -7 -22 -7 -8 -8 -15 -3 -15 10 0
11 -35 1 -45 -3 -3 -2 -22 2 -41 4 -19 4 -36 -1 -39 -4 -3 -5 -16 0 -28 5 -12
6 -31 4 -42 -5 -25 -5 -30 2 -80 3 -22 6 -52 7 -67 1 -16 4 -28 8 -28 3 0 6
-13 5 -30 0 -16 -2 -30 -3 -30 -12 0 -62 43 -62 53 0 7 -34 36 -75 65 -41 30
-75 60 -75 67 0 14 -42 45 -70 50 -11 2 -43 22 -73 44 -30 23 -61 41 -70 41
-10 0 -16 5 -14 12 1 7 -5 12 -13 13 -8 0 -26 6 -38 13 -13 8 -26 11 -29 8 -3
-3 -20 6 -38 19 -17 14 -35 22 -38 19 -4 -4 -22 5 -42 20 -19 15 -35 22 -35
15 0 -7 -8 -5 -20 6 -11 10 -23 15 -27 12 -3 -4 -16 -1 -27 6 -22 13 -86 15
-122 2 -36 -12 -88 -93 -89 -139 0 -23 -5 -47 -9 -55 -5 -7 -9 -21 -10 -30 -1
-22 -34 -66 -42 -58 -4 4 -14 -2 -21 -13 -8 -11 -19 -18 -24 -15 -5 4 -9 2 -9
-3 0 -5 24 -27 52 -49 74 -55 79 -57 88 -42 7 10 12 10 23 1 7 -7 16 -9 19 -7
3 3 25 8 48 10 24 3 46 8 49 13 7 10 38 24 66 29 11 2 25 10 31 18 6 8 21 16
34 18 13 2 28 10 34 18 6 8 20 14 31 14 11 0 25 6 32 15 7 8 13 12 13 9 0 -4
16 -3 35 1 21 5 38 4 41 -2 3 -5 11 -7 17 -5 7 2 26 0 42 -5 17 -5 37 -10 45
-11 24 -3 210 -141 206 -153 -3 -6 6 -17 20 -24 13 -8 24 -19 24 -26 0 -8 11
-21 25 -30 14 -9 23 -19 20 -22 -3 -3 5 -16 17 -29 12 -13 17 -23 12 -23 -5 0
-2 -5 6 -10 8 -5 16 -13 16 -17 5 -27 18 -53 26 -53 6 0 8 -6 5 -14 -3 -7 0
-22 8 -33 7 -10 15 -32 16 -48 2 -17 9 -41 16 -54 8 -16 9 -29 3 -36 -6 -7 -7
-15 -3 -18 3 -4 0 -13 -7 -22 -9 -11 -9 -15 -1 -15 6 0 1 -14 -11 -30 -21 -29
-23 -30 -30 -10 -8 22 -24 27 -26 8 0 -7 -3 -41 -6 -76 l-5 -63 82 -59 c45
-33 105 -77 134 -98 58 -44 108 -52 108 -18 0 11 6 21 14 24 10 3 11 0 5 -9
-10 -17 -13 -49 -4 -49 3 0 6 -9 7 -21 2 -26 17 -43 58 -67 l33 -20 72 98 c59
80 76 97 93 92 13 -3 18 -1 14 6 -10 15 92 9 123 -8 14 -8 29 -13 33 -12 15 4
95 -60 103 -82 4 -11 8 -38 9 -59 1 -22 8 -43 16 -48 13 -8 12 -10 -12 -13
-19 -2 -58 -58 -51 -74 3 -10 1 -13 -6 -8 -8 5 -12 -1 -12 -15 0 -12 -3 -19
-7 -16 -11 12 -32 -14 -26 -31 3 -9 2 -14 -2 -9 -10 8 -45 -21 -45 -37 0 -6
62 -57 138 -113 75 -56 230 -171 344 -255 1105 -820 1311 -969 1324 -964 11 4
9 14 -9 48 -12 24 -26 46 -30 49 -5 3 -8 9 -7 13 1 8 -32 79 -40 86 -7 5 -23
40 -24 53 -1 4 -7 11 -14 16 -8 5 -14 12 -14 17 0 5 -5 20 -11 34 -6 14 -11
29 -11 33 -1 4 -6 11 -12 15 -6 4 -10 17 -9 29 1 13 -1 23 -5 23 -3 0 -12 16
-20 35 -8 19 -17 35 -21 35 -4 0 -10 10 -14 23 -4 12 -9 24 -10 27 -1 3 -6 15
-10 28 -4 12 -11 22 -16 22 -8 0 -22 25 -29 55 -2 6 -11 16 -21 23 -11 7 -19
20 -19 28 0 8 -5 14 -11 14 -6 0 -9 6 -6 13 3 7 -4 19 -14 26 -11 6 -17 16
-14 21 4 6 -1 13 -9 16 -9 3 -14 10 -11 14 3 4 -2 13 -10 20 -8 7 -15 17 -15
23 0 5 -8 16 -17 23 -10 7 -19 16 -19 21 -5 27 -18 52 -30 57 -8 3 -14 12 -14
20 0 9 -9 20 -20 26 -11 6 -19 14 -18 18 3 14 -22 62 -32 62 -5 0 -10 5 -10
11 0 6 -13 28 -30 49 -16 21 -30 41 -30 45 0 4 -11 16 -25 27 -14 11 -23 23
-20 28 3 4 -2 11 -11 14 -8 3 -13 10 -10 15 4 5 -5 18 -19 29 -13 11 -22 22
-19 25 3 3 -8 15 -25 28 -17 13 -31 28 -31 35 0 14 -78 69 -87 61 -3 -4 -17 2
-30 13 -37 29 -142 20 -189 -15 -19 -14 -34 -28 -34 -30 0 -2 19 -1 43 2 75 8
196 10 209 2 6 -4 13 -17 15 -28 2 -18 -1 -21 -22 -17 -14 3 -25 1 -25 -3 0
-4 -12 -8 -27 -9 -65 -3 -88 -8 -95 -16 -3 -6 -19 -11 -35 -13 -15 -2 -35 -6
-43 -10 -8 -3 -19 -7 -23 -7 -4 -1 -11 -5 -15 -11 -4 -5 -13 -11 -20 -13 -7
-1 -20 -4 -30 -6 -31 -6 -70 -24 -73 -35 -4 -10 -58 4 -87 22 -6 5 -16 6 -21
2 -5 -3 -12 -2 -15 3 -3 5 -24 8 -48 7 -24 -1 -49 2 -55 8 -9 6 -13 6 -13 -2
0 -7 -5 -9 -11 -5 -6 3 -28 6 -48 6 -35 -1 -38 1 -33 24 2 13 11 24 18 24 8 0
14 10 14 24 0 33 14 40 87 43 44 1 65 -2 73 -12 10 -12 9 -15 -4 -16 -9 -1
-22 -2 -28 -3 -7 0 -14 -9 -16 -19 -3 -14 0 -16 22 -7 14 5 26 6 26 2 0 -4 7
2 15 12 8 11 15 16 15 12 0 -5 6 -4 13 2 6 5 35 13 62 16 99 13 110 17 132 44
13 15 27 27 33 27 5 0 17 10 25 23 9 12 23 22 31 22 8 0 14 5 14 10 0 6 10 10
23 10 13 0 27 4 33 9 5 5 32 12 59 16 66 8 113 15 150 22 17 3 41 7 55 8 14 2
43 6 65 9 22 3 49 7 61 10 12 2 45 7 75 11 30 4 57 9 61 11 4 2 9 0 13 -6 4
-6 10 -8 15 -5 5 3 28 8 50 10 22 2 45 7 50 10 5 3 11 1 14 -3 3 -5 18 -7 33
-5 16 2 34 4 41 3 41 -2 62 -1 100 4 23 3 47 8 52 11 5 3 11 1 15 -4 3 -6 11
-8 18 -6 12 4 65 13 127 21 39 6 64 9 130 19 51 8 53 8 60 5 14 -5 50 -6 50 0
0 3 10 6 23 7 12 1 42 4 67 8 25 4 75 8 113 8 37 0 67 3 67 8 0 4 12 4 28 0
15 -4 56 -6 92 -5 36 1 70 -2 76 -7 15 -12 11 -133 -5 -152 -7 -9 -10 -20 -7
-25 7 -12 -22 -52 -38 -52 -14 0 -31 -27 -27 -43 1 -5 -8 -20 -19 -34 -16 -20
-18 -28 -8 -34 14 -9 50 19 42 32 -6 10 20 51 28 44 3 -3 11 1 18 10 7 8 18
15 24 15 6 0 27 22 46 49 18 26 45 53 60 58 40 17 70 22 75 12 3 -4 12 -6 19
-3 8 3 17 1 21 -5 3 -6 15 -11 26 -11 22 0 130 -77 126 -90 -1 -5 22 -26 50
-48 29 -21 50 -41 47 -44 -3 -3 6 -15 20 -26 15 -11 26 -25 26 -30 0 -15 199
-158 215 -154 7 1 18 -5 25 -13 7 -8 23 -15 35 -15 12 0 28 -7 35 -15 7 -9 19
-14 26 -11 7 3 24 -4 39 -15 14 -12 38 -23 54 -25 27 -5 36 6 155 168 103 140
124 174 111 181 -8 4 -13 12 -10 16 2 5 -2 14 -10 21 -8 7 -15 19 -15 26 0 8
-5 14 -10 14 -6 0 -13 8 -17 18 -3 9 -16 31 -28 47 -19 26 -35 58 -37 75 -2
12 -144 109 -155 105 -7 -2 -15 0 -18 6 -4 5 -11 7 -16 3 -5 -3 -16 -1 -23 5
-7 6 -28 13 -47 15 -19 3 -47 8 -64 11 -16 4 -53 8 -80 9 -28 1 -55 5 -60 8
-6 3 -28 5 -51 5 -22 0 -45 3 -52 7 -7 4 -16 5 -21 1 -5 -3 -12 -1 -16 4 -3 7
-15 7 -30 1 -15 -6 -27 -6 -30 1 -4 5 -11 7 -16 3 -5 -3 -16 0 -24 6 -12 10
-15 10 -15 0 0 -10 -3 -10 -15 0 -8 6 -19 9 -24 6 -5 -4 -12 -2 -16 3 -3 7
-15 7 -30 1 -17 -7 -27 -5 -36 6 -7 8 -18 13 -25 10 -7 -3 -16 -1 -19 4 -3 6
-15 6 -29 0 -17 -6 -28 -4 -39 7 -13 13 -19 14 -31 4 -25 -21 -64 -21 -69 0
-3 10 1 23 8 29 7 5 11 29 11 53 -2 40 -3 42 -31 41 -18 -1 -43 8 -63 23 -23
17 -37 22 -45 15 -18 -15 -90 -22 -104 -10 -7 6 -13 7 -13 2 0 -5 -48 -10
-107 -10 -120 -2 -254 -10 -295 -19 -15 -3 -30 -1 -33 5 -4 6 -11 7 -17 4 -6
-4 -46 -8 -90 -10 -44 -1 -82 -5 -85 -7 -2 -3 -18 -1 -34 3 -16 5 -29 5 -29 1
0 -9 -287 -8 -296 1 -3 4 -16 3 -29 -2 -13 -5 -26 -6 -29 -2 -8 7 -113 5 -126
-3 -5 -3 -11 -1 -15 4 -7 12 -45 10 -45 -2 0 -6 -5 -5 -12 0 -7 5 -42 9 -78 8
-36 -1 -69 0 -75 3 -17 10 -55 11 -60 2 -3 -5 -11 -7 -18 -5 -25 8 -84 16
-137 18 -30 1 -61 6 -67 10 -8 5 -13 3 -13 -4 0 -9 -4 -9 -15 1 -8 6 -19 9
-24 6 -5 -4 -12 -2 -16 3 -3 7 -15 7 -30 1 -15 -6 -27 -6 -30 1 -4 5 -11 7
-16 4 -5 -4 -15 -3 -21 2 -7 4 -26 8 -43 9 -16 1 -30 3 -30 4 0 1 -10 3 -22 4
-13 2 -23 -1 -23 -5 0 -9 -34 -4 -52 7 -7 4 -30 7 -52 7 -23 0 -45 1 -49 4 -4
3 -34 6 -65 9 -31 2 -71 7 -89 13 -17 5 -34 7 -37 4 -3 -3 -11 -1 -19 5 -7 7
-18 7 -27 2 -8 -5 -22 -4 -34 3 -12 6 -25 10 -30 9 -4 -2 -14 3 -22 9 -11 9
-14 9 -14 0 0 -7 -5 -9 -12 -4 -7 4 -31 9 -53 10 -47 4 -90 10 -90 13 0 1 -14
3 -32 4 -18 1 -35 5 -38 8 -4 4 -13 4 -21 1 -10 -4 -14 3 -15 23 -1 16 0 34 1
39 1 6 3 18 5 27 2 9 21 41 42 70 54 73 56 77 45 91 -8 10 -10 192 -2 192 1 0
3 14 4 30 1 17 5 36 9 43 16 24 30 152 17 152 -12 0 -5 69 8 82 7 7 12 8 12 4
0 -5 6 -3 14 4 8 6 13 17 10 24 -3 7 9 17 30 23 33 10 38 8 120 -52 47 -34 82
-65 79 -69 -3 -3 6 -15 21 -27 15 -12 25 -24 22 -27 -3 -3 8 -15 24 -27 16
-12 27 -24 24 -27 -3 -3 21 -26 54 -52 33 -25 62 -43 65 -39 4 3 18 -2 33 -11
14 -10 28 -15 31 -12 4 3 12 1 19 -4 6 -6 22 -13 34 -15 13 -2 31 -12 41 -21
13 -11 19 -13 19 -5 0 8 11 4 30 -9 16 -12 34 -19 39 -16 5 3 14 -1 21 -9 7
-8 16 -12 21 -9 5 3 17 0 28 -6 11 -5 33 -11 48 -12 15 -1 34 -6 42 -12 7 -6
25 -11 40 -11 14 0 32 -4 39 -9 7 -4 34 -10 60 -11 43 -3 73 -8 142 -21 45 -9
95 -16 110 -16 8 -1 20 -4 25 -8 12 -8 142 -6 210 4 78 11 79 11 91 18 6 4 26
10 44 13 19 3 39 9 45 13 5 4 24 9 40 11 17 2 32 7 35 11 6 9 26 14 110 25 78
11 103 16 114 23 6 3 22 8 36 10 14 1 32 5 40 9 8 3 18 5 23 5 4 -1 7 3 7 10
0 6 3 9 6 6 3 -4 17 0 31 7 15 8 30 12 34 9 5 -2 16 7 25 21 9 14 22 25 29 25
15 0 48 48 50 71 2 18 73 115 83 113 4 -1 18 3 32 9 14 6 29 11 33 11 4 1 11
6 15 11 10 14 39 18 47 6 3 -6 13 -7 21 -4 10 4 17 -2 21 -16 3 -11 10 -21 15
-21 5 0 7 -4 4 -9 -6 -9 27 -43 40 -40 5 1 11 0 14 -1 15 -7 76 -6 86 1 6 5
20 10 32 12 12 2 36 22 53 45 17 23 37 42 45 42 8 0 14 5 14 10 0 13 47 13 55
-1 4 -6 13 -8 20 -5 15 5 49 -27 38 -37 -3 -4 -1 -7 6 -7 8 0 5 -10 -8 -26
-25 -31 -27 -46 -6 -38 9 4 15 0 15 -9 0 -8 6 -17 14 -20 21 -8 45 -63 35 -78
-5 -8 -9 -10 -9 -5 0 5 -10 0 -23 -12 -13 -12 -27 -19 -30 -15 -4 3 -7 2 -7
-4 0 -13 -38 -24 -45 -13 -3 5 -1 11 5 15 6 4 8 11 4 16 -3 5 0 17 7 25 16 20
21 62 7 70 -5 4 -17 -1 -26 -9 -13 -13 -13 -19 -2 -32 11 -13 10 -18 -4 -33
-19 -22 -21 -53 -4 -70 9 -9 8 -16 -5 -30 -9 -10 -18 -35 -21 -56 -3 -22 -9
-43 -14 -48 -5 -5 -6 -24 -2 -43 4 -18 4 -37 -1 -42 -4 -4 -3 -19 4 -33 10
-20 10 -32 0 -64 -12 -34 -12 -40 4 -52 16 -11 20 -10 35 9 10 12 18 18 18 13
0 -5 7 -3 15 4 12 10 82 16 110 9 6 -1 15 -3 20 -4 6 -2 12 -4 15 -5 3 -1 19
-3 35 -4 17 -1 39 -7 50 -13 11 -6 25 -9 31 -6 6 2 17 -3 24 -12 7 -8 20 -15
29 -15 9 0 27 -7 39 -16 13 -9 26 -13 29 -10 3 3 18 -3 33 -14 15 -11 30 -17
33 -13 4 3 22 -6 42 -21 19 -15 35 -22 35 -16 0 6 15 -1 34 -15 19 -14 43 -28
55 -30 11 -2 36 -15 54 -29 19 -14 36 -23 40 -20 8 9 242 -164 242 -179 0 -7
7 -12 15 -12 20 0 71 -35 65 -45 -3 -5 24 -30 60 -56 36 -26 65 -53 65 -59 0
-7 17 -24 37 -38 l38 -27 8 22 c4 11 6 100 5 197 -3 148 -5 176 -18 177 -8 1
-21 2 -28 3 -8 0 -12 7 -9 14 2 6 -9 21 -24 33 -16 11 -26 23 -23 26 3 3 -6
15 -20 26 -15 11 -26 25 -26 30 0 14 -55 53 -63 45 -4 -3 -22 6 -41 21 -19 14
-41 26 -48 26 -8 0 -24 7 -36 16 -12 8 -32 17 -43 19 -12 3 -30 12 -40 21 -10
9 -22 13 -27 10 -5 -3 -20 3 -33 13 -22 16 -67 34 -94 36 -6 0 -21 8 -34 17
-13 10 -28 15 -33 12 -5 -3 -15 0 -23 6 -8 6 -19 9 -24 6 -5 -4 -13 -1 -16 5
-4 5 -13 8 -21 5 -7 -3 -16 -1 -19 5 -4 5 -11 7 -16 3 -5 -3 -16 0 -24 6 -12
10 -15 10 -15 0 0 -10 -3 -10 -15 0 -8 6 -19 9 -24 6 -5 -4 -12 -2 -15 2 -3 5
-26 8 -51 7 -25 -2 -48 1 -50 6 -3 4 -17 4 -30 -1 -16 -6 -27 -6 -31 1 -4 7
-10 6 -19 -1 -7 -6 -30 -12 -52 -15 -55 -5 -67 -9 -75 -20 -4 -5 -11 -10 -15
-11 -4 0 -21 -7 -38 -14 -61 -27 -64 -25 -59 32 2 28 11 59 20 69 9 10 13 22
10 27 -8 13 98 152 129 168 14 7 25 10 25 6 0 -3 7 4 16 16 8 12 19 20 24 17
5 -3 15 3 22 13 12 17 41 34 61 36 4 1 11 7 16 14 5 8 10 13 12 12 2 -1 18 4
34 11 17 7 39 14 50 16 10 2 22 7 25 11 3 5 14 12 25 17 11 4 22 9 25 10 3 2
15 6 28 10 12 4 22 11 22 15 0 8 39 23 53 21 4 -1 10 5 13 13 3 8 12 12 20 9
8 -3 14 0 14 6 0 6 6 11 14 11 7 0 19 7 26 15 7 8 16 12 21 9 5 -3 9 -1 9 5 0
6 7 8 15 5 8 -4 15 -2 15 4 0 5 8 12 18 14 9 3 22 6 27 8 42 13 75 16 91 7 11
-6 25 -11 33 -12 8 0 19 -9 25 -20 6 -11 17 -24 24 -30 7 -5 14 -30 17 -54 2
-24 10 -49 16 -57 6 -8 8 -14 3 -14 -5 0 -1 -5 9 -11 9 -6 15 -14 12 -19 -10
-17 71 -65 130 -76 6 -1 12 -3 15 -4 3 -1 15 -3 28 -4 29 -3 29 13 -2 157 -67
309 -167 515 -310 635 -77 65 -141 86 -266 88 -95 1 -111 4 -165 31 -85 43
-174 71 -261 84 -63 10 -86 9 -146 -6 -71 -17 -202 -16 -272 3 -14 4 -98 63
-185 130 l-160 124 29 58 c75 148 106 324 68 382 -14 22 -14 30 3 96 96 377
49 793 -141 1252 -26 63 -73 176 -104 250 -63 151 -141 296 -224 415 -55 79
-253 285 -274 285 -6 0 -35 18 -65 41 -30 22 -63 42 -74 44 -12 2 -27 9 -35
16 -11 9 -14 9 -14 0 0 -7 -9 -5 -24 6 -13 10 -22 21 -19 26 18 30 -301 92
-417 81z m300 -68 c6 -8 17 -13 24 -10 15 6 68 -34 63 -49 -7 -21 -42 -15 -84
15 -43 32 -49 39 -36 51 10 11 19 8 33 -7z m227 -112 c2 -6 -6 -11 -18 -10
-12 0 -24 6 -26 12 -2 6 6 11 18 10 12 0 24 -6 26 -12z m-507 -754 c0 -5 -2
-10 -4 -10 -3 0 -8 5 -11 10 -3 6 -1 10 4 10 6 0 11 -4 11 -10z m125 -20 c4
-6 12 -10 18 -9 22 4 48 -14 58 -38 7 -19 14 -22 39 -18 29 5 30 4 20 -15 -6
-11 -7 -20 -3 -21 39 -4 91 -35 78 -47 -3 -3 13 -18 34 -34 45 -32 77 -76 64
-88 -4 -5 -30 -11 -58 -15 -27 -3 -63 -8 -80 -12 -16 -3 -40 -6 -52 -7 -12 -1
-25 -5 -29 -9 -14 -14 -26 -7 -14 8 7 8 10 15 6 16 -29 4 -75 0 -96 -9 -14 -5
-28 -8 -32 -5 -5 2 -8 -1 -8 -6 0 -6 -6 -11 -14 -11 -16 0 -76 -77 -76 -98 0
-8 -9 -25 -20 -40 -14 -17 -17 -29 -10 -36 17 -17 11 -24 -15 -21 -30 3 -38 9
-42 34 -2 12 5 21 19 24 18 5 19 8 8 21 -7 9 -21 16 -31 16 -11 0 -19 7 -19
15 0 8 -6 12 -13 9 -18 -7 -24 46 -13 120 6 37 63 123 74 112 3 -3 16 9 29 27
13 17 25 30 27 27 6 -11 36 24 36 42 0 26 32 66 48 60 6 -2 12 1 12 7 0 14 47
14 55 1z m397 -86 c23 -16 51 -27 64 -26 12 2 35 -5 50 -15 15 -10 32 -18 38
-18 19 0 136 -88 136 -102 0 -7 18 -25 40 -39 22 -15 40 -33 40 -40 0 -7 10
-20 23 -29 12 -8 21 -19 21 -23 -1 -4 3 -18 8 -32 5 -14 9 -27 8 -29 -1 -2 4
-7 11 -12 7 -4 14 -15 15 -24 1 -9 6 -24 10 -33 4 -9 8 -30 10 -45 1 -16 7
-34 13 -41 6 -7 8 -16 4 -19 -3 -4 -2 -7 3 -7 5 0 9 -16 8 -35 -1 -19 1 -35 5
-35 4 0 7 -16 6 -35 -1 -19 2 -35 8 -35 5 0 5 -5 -2 -13 -6 -8 -9 -23 -7 -34
3 -11 7 -44 11 -73 4 -29 9 -62 11 -74 3 -12 7 -34 9 -51 2 -16 7 -50 11 -75
8 -54 8 -136 1 -167 -3 -13 -1 -23 5 -23 7 0 7 -4 1 -12 -6 -7 -9 -32 -8 -56
1 -24 -2 -45 -6 -48 -5 -2 -6 -11 -3 -18 3 -8 0 -17 -5 -21 -6 -3 -9 -11 -5
-16 3 -5 0 -17 -7 -25 -6 -8 -9 -17 -6 -21 4 -3 1 -15 -5 -27 -7 -11 -11 -25
-10 -29 1 -4 -10 -23 -24 -42 -15 -19 -21 -35 -15 -35 6 0 -43 -73 -109 -162
-66 -90 -125 -163 -131 -163 -6 0 -18 -9 -27 -21 -15 -18 -50 -38 -60 -34 -2
1 -10 -7 -18 -17 -7 -10 -14 -14 -14 -9 0 5 -8 2 -18 -8 -16 -14 -75 -28 -119
-29 -7 0 -15 -7 -18 -15 -4 -11 -8 -12 -20 -2 -8 6 -19 9 -24 6 -5 -4 -13 -1
-16 4 -4 6 -19 10 -33 9 -15 -2 -32 -1 -37 3 -6 3 -41 5 -80 4 -55 -2 -75 2
-95 17 -14 10 -24 22 -23 25 1 4 -3 13 -9 20 -7 8 -7 16 2 27 7 8 10 26 7 41
-3 20 1 27 18 34 13 5 25 14 27 21 2 7 15 14 29 15 58 4 95 16 110 36 19 25
14 55 -12 69 -24 13 -24 31 1 54 11 10 20 14 20 9 0 -5 7 2 16 14 8 12 22 22
30 22 8 0 14 5 14 10 0 20 44 29 63 12 9 -8 20 -12 24 -9 3 4 16 0 29 -8 20
-13 23 -12 28 1 3 8 10 13 15 10 5 -3 14 1 21 9 7 9 8 15 2 15 -5 0 -9 16 -7
35 1 19 -3 35 -8 35 -6 0 -7 3 -4 7 4 3 3 11 -3 17 -5 7 -12 27 -15 46 -3 19
-13 40 -21 47 -9 6 -13 16 -10 21 3 5 -1 18 -9 28 -8 10 -15 29 -15 40 0 12
-11 29 -25 38 -14 9 -23 21 -20 26 3 5 1 11 -5 15 -5 3 -10 1 -10 -5 0 -6 -5
-8 -10 -5 -6 4 -8 10 -5 15 3 5 -3 15 -14 21 -10 7 -17 17 -15 23 2 6 -9 20
-25 31 -17 11 -32 26 -34 35 -2 8 -22 28 -45 44 l-42 29 -18 -24 c-26 -31 -18
-53 32 -89 22 -17 42 -35 42 -40 1 -6 3 -11 4 -12 8 -8 4 -58 -5 -58 -96 -5
-117 -9 -135 -25 -11 -10 -20 -15 -20 -10 0 4 -9 -3 -19 -16 -18 -23 -20 -23
-38 -6 -11 9 -26 17 -34 17 -8 0 -24 7 -35 15 -12 8 -31 12 -44 10 -12 -2 -30
1 -40 7 -16 10 -16 15 -5 32 7 12 11 28 10 36 -13 64 -14 79 -6 84 10 7 3 46
-9 46 -4 0 -11 10 -14 23 -6 22 -7 21 -34 -10 -16 -18 -33 -33 -38 -33 -14 0
-56 -58 -50 -69 3 -4 -2 -19 -12 -32 -9 -13 -17 -35 -17 -49 -1 -14 -6 -34
-11 -45 -6 -11 -10 -42 -9 -70 1 -27 -1 -54 -4 -60 -9 -17 -8 -69 2 -82 5 -7
20 -13 33 -13 34 0 54 -41 33 -67 -6 -7 -8 -17 -5 -22 4 -5 2 -12 -4 -16 -5
-3 -8 -15 -7 -25 4 -23 17 -39 17 -21 0 7 16 0 35 -15 20 -15 33 -29 31 -31
-3 -3 -1 -16 4 -29 10 -26 6 -31 -35 -38 -26 -5 -69 14 -71 32 -2 19 -20 48
-36 61 -17 12 -18 15 -4 30 22 24 14 55 -15 59 -13 2 -32 11 -41 19 -14 13
-20 13 -33 3 -12 -10 -18 -10 -30 0 -9 7 -18 10 -22 6 -3 -3 -21 6 -40 20 -18
14 -42 27 -53 29 -27 5 -80 46 -80 62 0 8 -7 16 -15 19 -8 4 -15 12 -15 19 0
20 -19 28 -34 16 -10 -9 -15 -7 -19 8 -3 11 1 25 8 31 14 11 17 50 4 50 -6 0
-5 38 1 50 1 3 3 10 4 15 2 19 89 135 97 130 4 -3 20 13 36 35 15 22 35 40 44
40 9 0 30 7 47 16 17 8 41 16 53 17 11 1 25 9 30 19 5 10 16 18 25 18 8 0 17
6 20 14 6 17 36 28 82 30 35 2 62 -17 42 -29 -8 -5 -8 -10 0 -20 13 -16 54 -8
41 9 -10 13 -9 46 4 66 11 18 15 99 5 125 -5 14 1 30 22 58 16 20 33 35 38 32
5 -3 10 0 12 7 8 24 45 15 98 -23 30 -21 51 -39 46 -39 -5 0 -3 -7 4 -15 7 -8
16 -12 21 -9 5 3 27 -8 48 -25 42 -34 57 -38 64 -18 3 9 7 9 19 0 8 -7 18 -10
21 -6 4 3 13 0 21 -6 8 -7 20 -10 25 -7 5 4 12 2 15 -2 5 -8 86 -9 94 -2 1 1
7 3 12 4 6 0 14 7 19 14 5 8 10 13 12 11 3 -2 42 8 59 16 3 1 14 6 25 10 29
12 33 23 25 61 -6 26 -5 34 6 34 7 0 11 6 8 14 -7 18 5 25 56 32 23 3 49 7 58
8 9 2 21 10 26 19 16 25 -5 38 -63 41 -30 2 -58 9 -69 19 -10 10 -22 14 -25
11 -4 -4 -13 -1 -22 6 -12 10 -15 10 -15 0 0 -9 -4 -9 -12 -2 -13 10 -106 9
-165 -2 -26 -5 -31 -3 -27 9 4 8 21 22 40 31 19 9 34 23 34 31 0 8 4 12 8 9 5
-3 18 8 30 24 l21 29 -27 9 c-27 10 -23 13 28 16 12 0 24 6 28 12 4 6 17 10
30 9 12 -1 22 2 22 6 0 4 10 5 23 3 12 -3 29 -6 37 -6 8 0 23 -8 33 -16 13
-12 17 -12 17 -2 0 7 3 10 7 7 3 -4 12 -2 20 4 11 10 10 14 -7 26 -11 8 -18
18 -15 23 7 12 -6 19 -49 24 -39 5 -120 61 -110 77 3 5 1 9 -5 9 -5 0 -36 26
-69 59 -46 45 -57 62 -50 75 5 9 16 16 25 16 8 0 13 6 10 13 -9 25 70 12 115
-19z m-199 -355 c-6 -6 -17 -8 -24 -3 -9 5 -8 9 7 14 23 9 31 3 17 -11z m-423
-857 c0 -4 -9 -18 -19 -32 -16 -20 -21 -22 -35 -11 -20 17 -20 30 0 52 13 14
21 16 35 8 11 -5 19 -13 19 -17z m447 -105 c-5 -15 29 -41 42 -32 5 2 11 -9
13 -25 3 -17 0 -30 -6 -31 -6 0 -20 -2 -31 -4 -25 -5 -56 -8 -73 -6 -9 1 -10
6 -3 20 6 10 8 21 5 24 -7 7 37 67 49 67 5 0 7 -6 4 -13z m-972 -67 c3 -5 -1
-10 -9 -10 -8 0 -18 5 -21 10 -3 6 1 10 9 10 8 0 18 -4 21 -10z m35 -100 c0
-5 -2 -10 -4 -10 -3 0 -8 5 -11 10 -3 6 -1 10 4 10 6 0 11 -4 11 -10z m250
-282 c0 -12 -13 -9 -32 6 -10 7 -15 16 -12 19 7 7 44 -14 44 -25z m-820 -370
c16 -11 27 -25 24 -29 -6 -10 51 -50 59 -42 4 3 41 -20 83 -51 41 -32 78 -55
81 -52 3 3 15 0 27 -6 11 -7 33 -12 47 -13 15 0 33 -6 42 -13 8 -7 24 -15 35
-17 36 -7 84 -48 79 -67 -3 -10 -1 -21 4 -24 5 -3 9 -16 9 -29 0 -14 8 -29 20
-35 11 -6 19 -14 19 -18 -3 -21 14 -50 27 -45 19 7 18 -11 -2 -28 -14 -12 -14
-14 2 -26 10 -7 14 -13 10 -13 -4 0 -4 -5 0 -11 5 -8 13 -4 26 12 l20 24 -5
-23 c-4 -15 -1 -22 6 -19 7 2 12 10 12 18 0 22 24 59 39 59 8 0 13 7 12 16 0
9 5 19 12 21 7 3 11 -1 10 -9 -2 -8 4 -12 16 -10 11 2 15 -1 11 -7 -3 -6 -2
-11 4 -11 5 0 13 5 16 11 5 7 14 4 27 -7 15 -15 21 -16 27 -5 5 8 17 11 30 6
19 -6 20 -4 12 19 -16 41 17 37 85 -11 34 -23 64 -40 67 -37 3 3 22 -7 43 -22
20 -16 51 -29 68 -30 17 -1 31 -3 31 -4 0 -1 9 -3 20 -5 11 -2 34 -8 52 -13
17 -6 34 -8 37 -5 3 3 12 1 19 -5 8 -7 16 -10 19 -7 3 3 42 8 87 10 45 2 86 7
91 10 5 3 11 1 15 -5 4 -6 11 -8 16 -4 5 3 16 1 23 -5 7 -6 37 -13 67 -15 79
-7 142 -16 151 -22 4 -3 8 0 8 7 0 8 4 9 13 0 8 -6 22 -9 33 -7 10 2 42 7 69
10 45 6 86 13 118 19 7 1 15 6 19 12 4 5 18 10 31 10 21 2 32 5 67 20 18 8 46
16 54 15 5 -1 12 4 17 12 5 7 12 13 16 14 4 0 19 5 33 11 14 6 29 11 34 11 5
0 12 6 17 14 5 7 12 13 16 14 21 2 63 25 63 34 0 5 6 10 14 10 8 0 21 9 29 20
8 11 16 17 20 14 3 -3 15 8 28 25 13 17 28 31 35 31 7 0 17 8 23 18 8 14 23
17 85 16 42 0 76 4 76 9 0 5 6 5 13 -1 15 -12 45 -10 55 4 4 5 22 9 40 9 17
-1 32 1 32 4 0 3 15 7 33 8 54 4 62 6 67 14 3 4 21 11 40 14 19 3 39 10 45 14
5 5 18 7 28 6 10 -2 20 2 23 9 3 7 15 13 27 12 12 -1 25 3 29 8 7 11 27 15 78
17 19 1 40 6 47 11 7 5 14 5 17 -1 4 -6 13 -8 20 -5 8 3 17 0 21 -5 3 -6 11
-9 16 -5 5 3 41 -18 80 -47 38 -28 73 -49 76 -45 3 3 12 1 19 -5 21 -17 154
-34 154 -19 0 4 10 6 23 5 12 -1 22 -3 22 -4 0 -1 21 -3 46 -4 26 -1 53 -8 61
-15 8 -6 18 -9 21 -6 8 8 177 -117 171 -127 -2 -4 9 -17 26 -29 16 -12 30 -27
30 -33 0 -7 14 -21 30 -32 16 -11 31 -26 31 -32 2 -15 4 -23 12 -43 8 -22 5
-50 -6 -50 -6 0 -26 12 -45 27 -36 27 -114 40 -137 22 -6 -4 -26 -11 -45 -14
-19 -3 -37 -10 -40 -14 -4 -6 -27 -18 -50 -26 -20 -7 -46 -19 -50 -24 -3 -3
-15 -11 -27 -18 -17 -10 -24 -9 -34 3 -7 9 -14 23 -16 33 -1 9 -14 26 -29 39
-21 18 -35 22 -63 18 -36 -5 -64 8 -68 31 -1 6 -5 25 -8 42 -10 60 -24 81 -55
88 -17 3 -33 10 -36 14 -3 5 -10 7 -15 3 -5 -3 -16 0 -24 6 -8 7 -15 8 -15 3
0 -5 -10 -9 -22 -8 -13 1 -26 -3 -30 -9 -4 -6 -11 -12 -15 -12 -27 -5 -53 -18
-53 -26 0 -5 -6 -8 -12 -5 -7 2 -23 -10 -36 -27 -13 -17 -26 -31 -30 -32 -4 0
-15 -4 -24 -8 -31 -14 -53 -14 -75 0 -14 9 -23 10 -23 4 0 -6 -25 8 -55 31
-31 23 -58 39 -62 35 -3 -3 -12 -1 -19 5 -7 6 -26 12 -41 15 -15 2 -39 5 -52
7 -30 5 -68 -14 -88 -42 -8 -12 -18 -19 -22 -17 -4 3 -47 -49 -95 -114 -68
-94 -93 -120 -112 -121 -40 -2 -44 -4 -52 -14 -4 -5 -11 -11 -17 -11 -5 -1
-30 -5 -55 -9 -43 -7 -63 -7 -178 -4 -30 1 -59 -4 -65 -10 -6 -6 -21 -11 -34
-11 -13 0 -23 -4 -23 -9 0 -8 -24 -18 -64 -27 -11 -3 -25 -9 -31 -14 -7 -5
-15 -7 -18 -3 -4 3 -7 2 -7 -4 0 -5 -16 -9 -35 -8 -19 1 -35 -2 -35 -7 0 -5
-6 -6 -12 -1 -7 4 -38 9 -68 10 -30 1 -73 4 -95 8 -22 4 -49 8 -60 10 -11 1
-20 4 -20 5 0 1 -16 3 -35 5 -19 2 -37 4 -40 5 -3 1 -9 2 -14 1 -4 -1 -14 4
-22 10 -8 6 -14 7 -14 3 0 -5 -16 -9 -35 -8 -19 1 -35 -1 -35 -5 0 -4 -16 -7
-35 -6 -19 1 -35 -1 -35 -5 0 -4 -10 -6 -22 -5 -13 1 -31 -2 -40 -6 -9 -5 -19
-5 -22 0 -3 4 -25 7 -48 6 -24 -1 -48 2 -55 8 -7 5 -17 6 -22 3 -5 -4 -12 -2
-16 4 -4 6 -10 8 -15 5 -5 -3 -18 -1 -29 5 -11 5 -33 11 -48 12 -15 1 -36 8
-45 16 -14 11 -18 12 -18 2 0 -10 -3 -10 -15 0 -9 7 -18 10 -22 7 -3 -4 -18 2
-32 12 -14 10 -31 16 -37 14 -6 -2 -17 3 -24 12 -7 8 -23 15 -35 15 -12 0 -28
7 -35 15 -7 9 -19 14 -26 11 -7 -3 -23 3 -36 13 -13 10 -27 17 -33 15 -19 -6
-150 100 -150 121 1 11 -4 23 -9 27 -5 3 -11 19 -13 35 -3 28 -6 42 -18 78 -6
19 -110 102 -124 99 -3 -1 -25 -5 -49 -8 -24 -3 -49 -9 -55 -13 -15 -10 -35
-14 -69 -15 -16 -1 -28 -6 -28 -12 0 -6 -10 -1 -22 11 -18 18 -19 24 -8 37 7
9 18 16 25 16 22 0 43 74 24 86 -5 3 -7 9 -4 14 3 4 -11 18 -31 31 -28 17 -38
19 -44 9 -4 -7 -12 -10 -17 -7 -5 3 -15 2 -23 -3 -9 -5 -19 -5 -26 1 -9 7 -20
6 -36 -5 -24 -16 -56 -7 -44 12 3 5 8 31 11 58 4 26 8 51 11 56 3 4 0 8 -5 8
-7 0 -7 7 1 20 16 25 22 25 58 -2z m216 -26 c-8 -7 43 -44 52 -38 13 8 52 -23
52 -40 0 -21 -50 -12 -88 15 -16 11 -32 18 -35 14 -9 -9 -34 15 -40 38 -4 14
1 23 16 28 21 8 54 -5 43 -17z m549 -292 c3 -5 1 -10 -4 -10 -6 0 -11 5 -11
10 0 6 2 10 4 10 3 0 8 -4 11 -10z m-180 -160 c3 -5 1 -10 -4 -10 -6 0 -11 5
-11 10 0 6 2 10 4 10 3 0 8 -4 11 -10z m-548 -175 c24 -17 43 -39 44 -50 0
-11 2 -30 5 -42 2 -12 -1 -25 -6 -28 -6 -4 -8 -11 -5 -16 4 -5 -3 -22 -14 -37
-14 -20 -18 -38 -14 -66 3 -27 0 -43 -13 -57 -9 -10 -14 -22 -11 -26 10 -9
-14 -34 -26 -26 -6 4 -8 0 -4 -10 3 -8 -1 -21 -9 -27 -11 -10 -14 -8 -15 11 0
13 -2 33 -5 44 -2 11 -6 37 -9 58 -2 21 -7 42 -10 47 -3 5 -1 11 3 14 5 3 7
18 5 33 -10 69 -14 100 -16 126 -1 15 -6 27 -11 27 -5 0 -3 6 3 14 6 8 11 18
10 22 -6 34 43 28 98 -11z m-287 -255 c0 -5 -2 -10 -4 -10 -3 0 -8 5 -11 10
-3 6 -1 10 4 10 6 0 11 -4 11 -10z m50 -10 c0 -5 -5 -10 -11 -10 -5 0 -7 5 -4
10 3 6 8 10 11 10 2 0 4 -4 4 -10z m200 -189 c0 -12 -20 -25 -27 -18 -7 7 6
27 18 27 5 0 9 -4 9 -9z m15 -31 c3 -5 -1 -10 -10 -10 -9 0 -13 5 -10 10 3 6
8 10 10 10 2 0 7 -4 10 -10z m-11 -76 c13 -5 14 -10 6 -20 -14 -16 -41 -7 -33
12 6 16 6 16 27 8z m-257 -46 c0 -7 3 -24 7 -37 6 -17 5 -22 -5 -19 -14 5 -25
68 -11 68 5 0 9 -6 9 -12z m213 -42 c0 -3 -4 -8 -10 -11 -5 -3 -10 -1 -10 4 0
6 5 11 10 11 6 0 10 -2 10 -4z m50 -46 c0 -5 -2 -10 -4 -10 -3 0 -8 5 -11 10
-3 6 -1 10 4 10 6 0 11 -4 11 -10z m-27 -300 c3 -13 0 -20 -8 -20 -11 0 -13
14 -6 38 3 8 9 -1 14 -18z m9 -152 c6 -16 -1 -38 -12 -38 -4 0 -7 11 -6 25 1
27 11 33 18 13z m2 -118 c-1 -8 -3 -23 -3 -32 -1 -10 -5 -18 -9 -18 -5 0 -8
16 -7 35 1 22 -2 35 -10 35 -7 0 -12 -7 -11 -16 0 -9 -4 -19 -10 -21 -23 -8
-8 38 16 50 21 11 26 11 31 -2 4 -9 5 -23 3 -31z"/>
<path d="M3175 6230 c-11 -4 -24 -5 -29 -2 -5 2 -6 -1 -4 -9 3 -8 11 -14 19
-14 8 0 19 -3 24 -7 6 -3 18 -3 28 1 18 6 18 7 0 23 -12 10 -25 13 -38 8z"/>
<path d="M1910 3883 c0 -5 9 -18 20 -28 11 -10 20 -14 20 -8 0 5 -9 18 -20 28
-11 10 -20 14 -20 8z"/>
<path d="M2146 3664 c-4 -10 -1 -14 6 -12 15 5 23 28 10 28 -5 0 -13 -7 -16
-16z"/>
<path d="M5062 3659 c-13 -20 -9 -39 8 -39 5 0 14 9 19 19 16 28 -10 47 -27
20z"/>
<path d="M3295 3430 c-11 -4 -23 -6 -27 -3 -12 6 -9 -15 2 -22 23 -14 49 -12
66 6 9 10 15 19 13 20 -2 0 -11 2 -19 3 -8 2 -24 0 -35 -4z"/>
<path d="M1163 4136 c-40 -55 -68 -80 -161 -142 l-113 -74 -121 -10 c-67 -6
-128 -16 -137 -23 -78 -61 -239 -243 -249 -281 -8 -30 -10 -31 -68 -32 -68 -1
-89 -10 -146 -62 -57 -51 -79 -101 -85 -191 -2 -42 -12 -105 -20 -139 -14 -55
-14 -65 -2 -73 20 -13 80 57 77 91 -1 14 3 34 9 45 16 28 15 27 4 56 -5 15 -7
30 -4 33 4 4 6 25 6 48 -1 45 36 108 63 108 8 0 14 3 14 8 0 12 83 46 105 44
38 -5 50 -8 63 -16 7 -4 16 -5 19 -2 3 3 11 2 18 -4 7 -6 21 -4 38 5 15 8 27
12 27 10 0 -2 12 9 28 24 18 18 36 27 52 25 14 -1 25 -3 25 -4 0 -1 16 -3 35
-5 19 -2 35 -4 35 -5 0 -1 10 -4 23 -5 12 -1 22 2 22 8 0 5 7 3 16 -4 14 -11
19 -9 35 11 10 14 17 30 15 37 -6 14 26 25 80 28 44 3 104 -26 104 -50 0 -7 7
-18 15 -25 8 -7 12 -16 9 -21 -3 -5 -1 -9 4 -9 5 0 9 -10 8 -22 -1 -16 11 -32
35 -50 29 -21 44 -25 75 -21 22 3 41 9 42 14 2 5 10 9 18 9 9 0 12 -4 9 -10
-3 -5 -2 -10 4 -10 19 0 21 19 3 32 -15 11 -18 29 -17 134 0 90 4 125 14 138
17 20 22 56 8 56 -6 0 -6 5 0 13 11 15 10 118 -2 137 -10 17 -16 120 -7 134 3
6 7 23 7 37 0 15 7 34 14 43 8 9 11 19 8 22 -3 4 -28 -24 -54 -60z m-20 -160
c21 -4 35 -11 32 -17 -4 -5 -1 -9 6 -9 9 0 9 -4 -1 -15 -6 -8 -9 -19 -6 -24 4
-5 2 -12 -4 -16 -6 -4 -8 -11 -4 -16 3 -5 0 -16 -6 -24 -7 -8 -8 -15 -3 -15 5
0 9 -16 8 -35 -1 -19 2 -35 7 -35 22 0 -3 -16 -29 -18 -37 -3 -53 -7 -83 -19
-20 -8 -32 -5 -70 22 -38 27 -53 31 -99 30 -37 -1 -58 -7 -66 -18 -7 -9 -29
-19 -51 -22 -21 -3 -44 -8 -51 -10 -6 -2 -26 7 -43 20 -18 14 -37 22 -41 19
-5 -3 -9 2 -9 10 0 9 -4 16 -10 16 -5 0 -10 5 -10 10 0 6 7 10 15 10 8 0 15 4
15 9 0 6 8 10 18 9 9 0 28 3 41 6 14 3 29 2 35 -3 23 -17 58 -19 89 -3 17 9
45 17 61 18 16 2 32 8 36 15 4 6 12 9 18 5 5 -3 13 1 16 10 3 8 10 13 15 10 5
-4 22 11 37 32 16 22 37 43 49 49 21 10 27 10 88 -1z"/>
<path d="M1301 4046 c-7 -8 -8 -17 -3 -20 6 -3 13 1 16 10 9 23 2 28 -13 10z"/>
<path d="M980 3440 c0 -5 -8 -6 -17 -3 -16 6 -16 5 -4 -10 10 -13 17 -15 27
-6 8 6 11 15 8 20 -7 12 -14 11 -14 -1z"/>
<path d="M5330 3265 c12 -15 30 -12 30 6 0 5 -10 9 -21 9 -18 0 -19 -2 -9 -15z"/>
<path d="M5340 3151 c21 -18 37 -25 41 -19 4 7 9 7 13 0 7 -11 46 -12 46 -1 0
15 -28 28 -50 24 -12 -2 -32 2 -44 10 -37 27 -42 15 -6 -14z"/>
<path d="M4993 3150 c1 -11 7 -18 13 -16 7 3 14 -4 17 -15 5 -19 27 -27 27 -9
0 6 -4 10 -10 10 -5 0 -10 5 -10 10 0 6 7 10 16 10 14 0 14 3 4 15 -19 23 -59
19 -57 -5z"/>
<path d="M5112 3158 c5 -15 28 -23 28 -10 0 5 -7 13 -16 16 -10 4 -14 1 -12
-6z"/>
<path d="M1900 3129 c0 -5 5 -7 10 -4 6 3 10 8 10 11 0 2 -4 4 -10 4 -5 0 -10
-5 -10 -11z"/>
<path d="M5090 3130 c0 -5 5 -10 10 -10 6 0 10 5 10 10 0 6 -4 10 -10 10 -5 0
-10 -4 -10 -10z"/>
<path d="M1930 3090 c0 -5 5 -10 11 -10 5 0 7 5 4 10 -3 6 -8 10 -11 10 -2 0
-4 -4 -4 -10z"/>
<path d="M1957 3073 c-4 -3 10 -19 31 -34 38 -29 52 -35 52 -21 -1 11 -77 62
-83 55z"/>
<path d="M4850 3060 c0 -5 5 -10 11 -10 5 0 7 5 4 10 -3 6 -8 10 -11 10 -2 0
-4 -4 -4 -10z"/>
<path d="M4900 3041 c0 -11 3 -12 35 -15 26 -2 17 19 -10 22 -14 2 -25 -1 -25
-7z"/>
<path d="M4975 3030 c-3 -5 -1 -10 4 -10 6 0 11 5 11 10 0 6 -2 10 -4 10 -3 0
-8 -4 -11 -10z"/>
<path d="M5017 3033 c-11 -10 -8 -25 3 -18 14 8 50 -13 47 -28 -1 -7 4 -11 11
-9 8 1 31 -11 52 -28 41 -33 60 -38 60 -16 0 19 -27 39 -40 31 -7 -4 -14 2
-17 14 -5 19 -15 26 -36 22 -5 -1 -20 8 -34 19 -28 21 -36 24 -46 13z"/>
<path d="M5222 2973 c3 -28 34 -61 45 -49 3 3 12 1 20 -6 7 -6 16 -8 20 -4 4
3 -3 14 -16 22 -16 12 -19 19 -12 28 13 15 4 27 -14 20 -7 -3 -16 -1 -20 5
-12 21 -26 11 -23 -16z"/>
<path d="M5301 2881 c-14 -25 -14 -34 0 -26 5 4 18 0 28 -9 16 -14 20 -15 30
-2 10 11 6 18 -18 35 -30 21 -30 21 -40 2z"/>
<path d="M4266 2835 c-3 -8 -1 -15 4 -15 13 0 22 18 11 24 -5 3 -11 -1 -15 -9z"/>
<path d="M4251 2731 c-22 -30 -24 -50 -7 -63 14 -10 16 -41 4 -55 -7 -9 -7
-13 0 -13 6 0 9 -7 6 -15 -4 -8 -1 -15 5 -15 6 0 11 -6 11 -14 0 -8 8 -21 18
-28 10 -7 21 -21 25 -30 3 -10 12 -18 18 -18 8 0 8 4 -1 14 -6 8 -10 25 -9 38
2 13 0 29 -4 35 -9 15 -17 66 -21 137 -3 59 -16 67 -45 27z"/>
<path d="M4383 2629 c-7 -7 -9 -19 -3 -34 5 -13 6 -26 3 -29 -4 -3 -1 -6 5 -6
6 0 13 4 16 9 3 5 15 7 25 4 13 -3 23 2 30 16 12 22 9 25 -36 23 -12 -1 -23 6
-25 14 -2 12 -6 12 -15 3z"/>
<path d="M4442 2538 c-15 -15 -16 -58 -2 -58 6 0 10 -7 10 -16 0 -8 5 -12 11
-9 6 4 8 23 5 48 -7 48 -9 50 -24 35z"/>
<path d="M1100 2351 c0 -5 5 -13 10 -16 6 -3 10 -2 10 4 0 5 -4 13 -10 16 -5
3 -10 2 -10 -4z"/>
<path d="M4618 1255 c-2 -2 -27 -6 -57 -10 -30 -4 -64 -13 -75 -20 -12 -8 -23
-14 -26 -14 -3 0 -18 -5 -35 -12 -16 -7 -33 -13 -37 -13 -4 -1 -15 -11 -23
-23 -9 -13 -23 -23 -31 -23 -8 0 -14 -4 -14 -9 0 -8 -20 -17 -57 -26 -6 -2
-31 -6 -54 -9 -23 -3 -47 -10 -54 -16 -6 -5 -16 -6 -20 -2 -5 4 -5 -1 -2 -10
3 -10 2 -20 -4 -24 -6 -3 -8 -12 -5 -19 2 -7 -3 -23 -12 -36 -9 -13 -17 -36
-17 -51 0 -14 -15 -47 -32 -71 -18 -24 -30 -47 -27 -50 3 -3 -1 -16 -10 -29
-9 -12 -16 -29 -16 -37 0 -8 -18 -38 -40 -67 -22 -29 -40 -55 -40 -58 0 -6 82
4 89 10 2 2 9 0 15 -5 18 -13 56 -20 56 -9 0 5 13 0 29 -11 15 -11 31 -18 35
-14 3 3 14 -2 25 -11 27 -24 106 -34 170 -21 14 2 30 0 38 -6 9 -8 13 -8 13
-1 0 13 36 7 54 -8 7 -5 15 -8 17 -6 11 10 85 13 96 4 9 -7 13 -7 13 0 0 6 11
9 24 8 14 -2 30 0 37 5 8 4 19 3 27 -3 16 -14 -2 -34 187 222 87 118 183 248
213 288 30 40 53 74 51 76 -2 1 -16 12 -32 23 -16 12 -36 19 -47 16 -11 -3
-31 2 -45 11 -14 9 -30 14 -35 11 -5 -3 -11 -1 -15 4 -3 6 -12 8 -19 5 -8 -3
-17 -1 -21 5 -3 6 -16 11 -29 11 -12 0 -26 3 -30 8 -4 4 -26 8 -49 9 -23 1
-72 4 -109 6 -36 3 -68 4 -70 2z"/>
</g>
</svg>
