<?xml version="1.0" standalone="no"?>
<!DOCTYPE svg PUBLIC "-//W3C//DTD SVG 20010904//EN"
 "http://www.w3.org/TR/2001/REC-SVG-20010904/DTD/svg10.dtd">
<svg version="1.0" xmlns="http://www.w3.org/2000/svg"
 width="578.000000pt" height="870.000000pt" viewBox="0 0 578.000000 870.000000"
 preserveAspectRatio="xMidYMid meet">

<g transform="translate(0.000000,870.000000) scale(0.100000,-0.100000)"
fill="#000000" stroke="none">
<path d="M4210 5120 c0 -5 -3 -9 -7 -8 -5 1 -21 -5 -38 -12 -16 -7 -38 -12
-47 -11 -10 1 -18 -3 -18 -9 0 -6 5 -8 13 -4 7 5 7 2 -2 -10 -8 -9 -10 -16 -5
-15 5 1 11 1 14 -1 34 -13 47 -7 60 24 7 19 18 32 24 30 7 -2 20 2 31 10 20
15 20 15 -2 16 -13 0 -23 -4 -23 -10z"/>
<path d="M1902 4937 c3 -31 9 -36 66 -59 17 -7 32 -17 33 -23 0 -5 2 -18 4
-27 2 -10 -5 -20 -16 -23 -26 -9 -46 -45 -24 -45 8 0 15 -8 14 -17 0 -11 -3
-13 -6 -5 -2 6 -9 12 -15 12 -6 0 -3 -9 7 -20 16 -18 16 -20 1 -26 -9 -3 -14
-10 -11 -14 3 -5 1 -11 -5 -15 -15 -9 -12 -25 5 -25 19 0 19 -20 0 -47 -10
-14 -12 -24 -5 -28 15 -9 12 -25 -3 -19 -7 2 -19 -7 -27 -21 -12 -23 -11 -27
12 -47 26 -23 26 -23 8 -56 -11 -21 -20 -28 -24 -20 -3 7 -4 0 -2 -17 2 -19 8
-29 17 -27 11 3 11 1 2 -9 -9 -9 -8 -17 4 -35 8 -13 12 -24 8 -24 -4 0 -2 -6
4 -14 6 -7 13 -33 15 -56 3 -27 11 -47 22 -53 16 -9 15 -11 -6 -27 -20 -15
-23 -26 -21 -69 1 -29 -2 -50 -7 -47 -4 2 -9 -5 -9 -16 -1 -12 -8 -25 -15 -29
-10 -7 -9 -9 5 -10 21 -2 26 -3 57 -16 14 -6 27 -10 30 -10 15 1 90 -45 85
-53 -3 -5 -1 -11 5 -15 7 -4 7 -13 -1 -28 -9 -19 -9 -20 4 -5 7 9 18 14 24 10
11 -8 14 -44 2 -36 -4 2 -10 0 -13 -5 -4 -5 2 -12 12 -15 14 -5 18 -15 17 -40
-1 -24 2 -33 10 -29 7 2 22 -5 33 -17 11 -12 25 -19 31 -15 6 3 14 -1 17 -9 6
-17 51 -40 94 -50 23 -5 24 -4 6 9 -10 8 -24 16 -30 18 -6 3 -7 8 -2 13 5 5
11 4 13 -3 3 -7 12 -13 22 -13 9 0 23 6 30 13 11 10 12 9 6 -2 -6 -11 -4 -13
8 -8 10 3 17 2 17 -3 0 -6 -7 -10 -15 -10 -13 0 -13 -3 -3 -20 9 -14 14 -16
20 -7 5 7 8 3 9 -13 1 -40 8 -73 20 -97 7 -12 9 -33 7 -47 -4 -18 -1 -26 9
-26 8 0 11 -4 8 -10 -4 -6 5 -10 19 -10 14 0 26 5 26 10 0 6 7 10 16 10 8 0
12 -4 9 -10 -3 -5 1 -10 9 -10 8 0 17 -9 21 -19 3 -12 14 -19 25 -18 28 2 25
17 -2 18 -18 1 -19 2 -5 6 10 3 25 -1 34 -9 15 -11 16 -11 10 5 -4 12 -1 17
11 17 27 0 45 -17 39 -34 -5 -13 1 -16 32 -16 43 0 72 -24 76 -64 2 -14 6 -29
9 -35 11 -17 -26 -31 -41 -15 -8 7 -20 11 -27 8 -15 -6 -88 40 -79 50 4 3 1 6
-6 6 -7 0 -22 11 -33 25 -22 28 -44 31 -73 11 -11 -7 -33 -16 -50 -19 -27 -5
-28 -4 -10 9 10 8 14 14 7 14 -6 0 -18 -9 -26 -21 -8 -12 -20 -19 -28 -16 -7
2 -21 0 -32 -5 -11 -6 -16 -6 -13 0 4 5 0 18 -7 28 -9 11 -11 23 -6 29 5 6 5
17 0 25 -6 8 -10 10 -10 4 0 -6 -10 -10 -22 -9 -26 3 -50 -13 -42 -26 3 -5 -2
-9 -10 -9 -25 0 -19 -14 12 -28 17 -8 28 -9 30 -2 8 23 40 9 46 -21 4 -21 10
-28 18 -23 10 6 10 5 0 -8 -10 -13 -9 -16 8 -21 13 -3 20 -13 20 -28 0 -12 3
-19 7 -16 3 4 12 2 20 -5 10 -8 17 -8 25 0 13 13 38 4 38 -14 0 -8 3 -13 8
-13 4 1 14 1 22 -1 11 -1 9 -4 -5 -10 -19 -8 -19 -9 2 -9 12 -1 23 5 26 12 3
9 7 9 18 1 18 -15 120 -14 112 0 -3 6 0 5 8 -1 7 -7 22 -13 34 -13 35 0 96
-21 90 -31 -4 -5 -1 -9 4 -9 6 0 11 5 11 10 0 6 6 10 14 10 8 0 21 18 30 40
15 38 41 52 60 33 12 -12 36 -12 36 0 0 8 4 7 9 -2 6 -9 32 -14 77 -15 38 -1
75 -5 82 -10 9 -5 24 2 44 20 l30 29 19 -24 c10 -13 19 -19 19 -13 0 11 60 22
75 14 17 -10 35 -11 35 -1 0 5 12 9 28 9 15 0 33 4 41 9 18 11 5 31 -20 31
-10 0 -20 6 -20 13 -2 24 3 52 12 57 5 3 8 23 7 44 -1 21 4 41 12 46 7 4 9 13
5 20 -5 9 -4 11 3 6 7 -4 12 -3 12 2 0 5 7 9 15 10 8 1 22 3 30 4 15 1 31 50
26 81 -1 9 3 17 9 17 6 0 9 4 6 8 -2 4 3 8 12 9 118 5 148 18 180 75 13 24 16
35 7 28 -12 -10 -15 -10 -15 0 0 6 9 14 20 17 11 3 20 12 20 20 0 7 11 26 24
40 14 15 23 30 21 34 -3 4 3 13 12 20 14 12 16 12 8 -1 -8 -13 -7 -13 10 0 10
8 27 13 38 12 16 -3 19 0 14 18 -3 13 0 23 9 27 8 3 11 9 8 14 -3 5 0 9 5 9 6
0 13 0 16 0 9 0 42 35 38 41 -6 13 25 17 36 6 9 -9 11 -8 5 6 -4 12 2 25 20
40 14 13 26 30 26 40 0 10 5 14 14 11 11 -4 17 5 22 30 3 20 12 36 19 36 7 0
31 20 53 44 22 24 43 41 46 38 3 -3 6 0 6 5 0 6 -5 13 -12 15 -8 3 -7 11 5 28
9 14 17 20 17 15 0 -6 4 -3 10 5 6 9 5 19 -2 28 -9 10 -8 22 1 47 9 26 9 39 1
56 -9 17 -9 20 0 14 9 -5 10 -2 6 12 -4 13 0 25 11 34 14 12 16 12 8 0 -5 -10
-4 -12 3 -7 18 11 14 26 -5 26 -14 0 -15 2 -4 9 11 7 11 9 0 14 -10 4 -10 6
-1 6 6 1 12 8 12 16 0 8 4 15 9 15 11 0 33 55 35 89 1 13 -6 34 -16 46 -10 13
-18 27 -18 31 0 4 6 0 13 -9 11 -16 12 -15 12 5 1 13 4 35 8 51 6 22 4 27 -12
27 -22 0 -45 25 -36 40 3 5 -1 10 -9 10 -9 0 -15 -4 -14 -8 6 -19 -47 -122
-60 -117 -18 7 -35 -43 -28 -85 3 -19 1 -42 -4 -50 -5 -8 -10 -11 -10 -7 0 5
-12 0 -27 -10 -16 -10 -40 -25 -55 -32 -15 -8 -25 -18 -22 -23 6 -9 -27 -12
-96 -9 -24 1 -47 6 -50 11 -3 5 -25 8 -49 7 -23 -2 -45 1 -47 5 -3 5 -10 6
-15 3 -5 -4 -9 -2 -9 3 0 5 -7 9 -15 9 -8 0 -15 -3 -15 -7 0 -4 -19 -13 -42
-20 -24 -7 -47 -17 -52 -22 -6 -4 -18 -8 -28 -8 -10 0 -21 -6 -24 -14 -7 -17
-99 -30 -122 -17 -9 6 -12 11 -4 11 17 0 15 20 -3 20 -8 0 -15 4 -15 8 0 15
-37 52 -44 45 -4 -4 -3 5 3 19 10 26 -2 51 -12 26 -3 -7 -6 -3 -6 8 -1 17 -7
21 -26 19 -14 -2 -25 0 -25 4 0 13 -57 28 -73 20 -9 -5 -18 -5 -21 -1 -5 8
-30 8 -113 -1 -18 -2 -39 -9 -47 -16 -11 -9 -16 -9 -21 0 -6 8 -10 7 -16 -2
-6 -10 -9 -10 -9 -2 0 19 -62 72 -92 79 -16 3 -28 12 -28 20 0 8 -9 13 -24 12
-15 -1 -22 -7 -19 -15 3 -9 -4 -13 -22 -13 -15 0 -24 4 -20 10 3 6 -3 10 -14
10 -14 0 -19 -5 -15 -14 3 -8 -3 -25 -15 -37 -11 -12 -18 -25 -16 -30 3 -4 -4
-5 -15 -2 -11 3 -20 14 -20 24 0 27 -28 23 -42 -6 -11 -24 -19 -29 -45 -26 -7
1 -13 -3 -13 -9 0 -5 -6 -10 -14 -10 -13 0 -15 -38 -2 -59 4 -6 1 -19 -5 -29
-12 -19 -13 -18 -36 9 -19 22 -31 28 -61 26 -45 -1 -92 34 -92 70 0 14 -4 21
-10 18 -6 -3 -7 1 -4 9 4 10 -1 18 -12 22 -11 3 -29 11 -41 17 -28 13 -32 9
-35 -29 -1 -23 -7 -29 -25 -30 -13 -1 -23 2 -23 6 0 4 -11 5 -25 2 -14 -2 -25
0 -25 7 0 6 -7 8 -17 4 -12 -5 -15 -2 -10 10 4 11 1 17 -8 17 -8 0 -15 5 -15
10 0 6 -9 10 -19 10 -11 0 -23 5 -26 10 -4 6 -10 8 -15 5 -5 -3 -11 -1 -15 5
-3 5 -19 10 -36 10 -19 0 -29 5 -30 15 -4 50 -3 72 4 68 4 -3 14 0 22 7 10 8
15 8 20 0 4 -6 14 -9 22 -6 9 4 22 1 31 -6 12 -10 16 -10 19 -1 7 20 33 2 33
-23 0 -18 4 -22 18 -17 9 3 14 3 10 -2 -10 -11 10 -35 29 -35 10 0 13 6 9 16
-3 8 -2 24 4 34 7 13 6 19 -5 23 -7 3 -16 1 -19 -6 -3 -9 -5 -9 -5 1 -1 6 -8
12 -17 12 -9 0 -12 5 -8 12 5 8 2 9 -11 5 -9 -4 -23 -3 -29 1 -6 5 -23 12 -38
16 -19 4 -32 17 -42 40 -25 59 -70 94 -139 107 -38 6 -38 6 -35 -24z m183
-127 c3 -6 -1 -7 -9 -4 -18 7 -21 14 -7 14 6 0 13 -4 16 -10z m1145 -210 c0
-5 -5 -10 -11 -10 -5 0 -7 5 -4 10 3 6 8 10 11 10 2 0 4 -4 4 -10z m-650 -120
c0 -5 -2 -10 -4 -10 -3 0 -8 5 -11 10 -3 6 -1 10 4 10 6 0 11 -4 11 -10z"/>
<path d="M2275 4660 c-3 -5 1 -10 9 -10 9 0 16 5 16 10 0 6 -4 10 -9 10 -6 0
-13 -4 -16 -10z"/>
<path d="M4125 4580 c-3 -5 -1 -10 4 -10 6 0 11 5 11 10 0 6 -2 10 -4 10 -3 0
-8 -4 -11 -10z"/>
<path d="M3550 4450 c0 -5 5 -10 10 -10 6 0 10 5 10 10 0 6 -4 10 -10 10 -5 0
-10 -4 -10 -10z"/>
<path d="M2082 3504 c-7 -8 -10 -23 -7 -34 4 -12 2 -20 -5 -20 -6 0 -8 -5 -4
-11 10 -17 24 4 29 44 5 42 5 42 -13 21z"/>
<path d="M2121 3491 c-8 -5 -10 -14 -6 -21 5 -9 4 -11 -3 -6 -8 5 -12 0 -12
-13 0 -12 -5 -21 -11 -21 -6 0 -9 -9 -6 -20 3 -11 2 -20 -2 -20 -10 0 -7 -28
7 -62 9 -21 17 -27 41 -26 39 1 64 29 63 70 0 29 1 30 9 11 5 -15 16 -23 31
-22 l23 2 -23 4 c-12 2 -20 9 -16 14 3 6 0 18 -7 27 -11 14 -11 15 1 5 8 -7
22 -13 33 -13 10 0 15 -4 12 -10 -3 -5 1 -10 10 -10 9 0 13 5 10 10 -3 6 1 10
9 10 9 0 16 5 16 10 0 13 -56 69 -70 71 -6 1 -14 2 -19 3 -5 0 -13 4 -17 9
-10 10 -56 9 -73 -2z m5 -156 c0 -26 -10 -33 -21 -15 -3 6 -1 10 4 10 6 0 10
3 10 8 -2 10 0 22 4 22 2 0 3 -11 3 -25z"/>
<path d="M2241 3343 c-1 -7 -9 -13 -18 -13 -15 0 -16 -2 -3 -10 18 -11 35 2
27 22 -4 9 -6 10 -6 1z"/>
<path d="M2260 3333 c0 -1 8 -7 18 -12 14 -7 19 -6 19 4 0 7 -9 13 -19 12 -10
-1 -18 -2 -18 -4z"/>
<path d="M3658 3323 c7 -3 16 -2 19 1 4 3 -2 6 -13 5 -11 0 -14 -3 -6 -6z"/>
<path d="M3503 3273 c-7 -3 -13 -10 -13 -17 0 -15 57 -9 67 7 3 6 1 7 -5 3 -7
-4 -12 -3 -12 2 0 9 -17 11 -37 5z"/>
<path d="M3828 3259 c-9 -5 -15 -16 -12 -23 6 -17 -18 -25 -63 -22 -18 2 -33
-1 -33 -5 0 -5 -7 -6 -15 -3 -25 10 -68 -5 -61 -22 4 -12 2 -12 -14 -4 -14 8
-20 8 -20 0 0 -6 -5 -8 -12 -4 -7 4 -8 3 -4 -4 4 -7 2 -20 -3 -29 -10 -17 -10
-17 -11 0 0 24 -20 21 -50 -6 -21 -18 -38 -23 -102 -25 -65 -2 -78 0 -78 13 0
8 -4 15 -10 15 -5 0 -10 8 -10 18 -1 16 -1 16 -11 0 -12 -21 -64 -26 -54 -5 4
6 -1 3 -10 -8 -9 -11 -21 -19 -26 -17 -6 1 -8 -2 -4 -8 3 -5 1 -10 -4 -10 -6
0 -11 -14 -11 -30 0 -22 -6 -33 -22 -40 -13 -5 -19 -9 -14 -9 8 -1 -34 -61
-65 -92 -9 -9 -28 -19 -43 -23 -15 -4 -24 -11 -20 -17 4 -7 -1 -7 -15 0 -11 7
-21 19 -21 27 0 11 -9 15 -27 14 -38 -3 -93 10 -93 22 0 5 4 7 8 4 4 -2 13 3
19 13 10 16 8 17 -14 13 -18 -3 -24 -1 -19 6 5 8 2 10 -8 6 -9 -3 -13 -11 -9
-18 4 -6 -1 -4 -11 4 -17 13 -17 14 1 21 15 6 14 8 -7 8 -34 1 -54 -14 -47
-32 4 -11 1 -14 -8 -10 -8 3 -12 9 -9 15 4 6 -19 8 -59 6 -47 -2 -63 -6 -57
-14 11 -12 4 -13 -73 -17 -27 -1 -51 1 -54 6 -9 14 -23 7 -23 -12 0 -25 28
-54 46 -47 8 3 14 1 14 -4 0 -6 -8 -10 -17 -10 -14 0 -15 -2 -5 -9 11 -7 11
-9 -2 -14 -11 -5 -16 -20 -16 -52 0 -30 4 -44 10 -40 17 11 39 -14 34 -38 -2
-12 -8 -23 -14 -25 -5 -2 -10 -13 -10 -25 0 -11 3 -17 6 -14 4 3 15 2 26 -4
15 -8 22 -7 32 6 12 16 15 16 49 -6 21 -13 40 -34 43 -46 4 -13 12 -23 20 -23
8 0 13 -6 11 -12 -1 -8 7 -13 20 -12 12 0 20 -3 17 -8 -3 -4 0 -8 5 -8 6 0 11
4 11 8 0 4 16 9 35 10 34 3 35 2 35 -33 0 -25 4 -34 12 -29 8 5 9 2 5 -10 -11
-27 18 -30 45 -3 19 19 23 32 20 64 -2 25 1 44 8 48 18 11 99 12 103 0 2 -5
12 4 23 20 10 16 27 38 37 47 9 10 17 23 17 28 0 6 5 10 11 10 8 0 7 -6 -2
-17 -13 -15 -11 -16 14 -9 17 4 27 2 27 -4 0 -6 -4 -8 -10 -5 -5 3 -10 1 -10
-4 0 -13 10 -14 30 -1 9 6 17 5 21 -1 6 -10 39 -14 82 -10 9 0 17 9 17 19 0
14 -2 15 -10 2 -5 -8 -10 -10 -10 -5 0 6 4 17 9 24 6 9 6 22 0 33 -9 17 -7 18
18 12 31 -8 46 -21 83 -76 13 -20 28 -34 32 -32 4 3 8 0 8 -5 0 -6 4 -11 10
-11 5 0 7 17 4 40 -4 27 -1 46 10 62 9 12 16 17 16 10 0 -9 6 -9 26 0 15 7 22
14 17 15 -5 2 -8 23 -6 46 2 23 -1 56 -6 72 -6 23 -4 38 12 68 11 20 24 37 29
37 4 0 8 7 8 15 0 8 6 15 13 15 8 0 14 14 15 36 2 27 -1 34 -10 28 -7 -4 -4 2
8 13 32 32 57 36 72 13 7 -12 10 -25 7 -30 -15 -24 5 -7 21 18 17 26 17 27 -2
13 -10 -7 -7 -2 9 12 15 14 27 30 27 35 0 6 7 13 16 16 14 5 15 4 4 -9 -7 -8
-9 -15 -4 -15 12 0 41 20 30 20 -5 0 -1 9 9 20 11 12 31 20 52 20 18 0 33 5
33 10 0 6 -5 10 -10 10 -7 0 -7 6 0 20 12 23 -2 27 -32 9z m-1291 -311 c-3 -8
-6 -5 -6 6 -1 11 2 17 5 13 3 -3 4 -12 1 -19z m63 -27 c-4 -14 -5 -33 -2 -41
3 -8 1 -11 -4 -7 -13 13 -12 74 1 74 9 0 10 -9 5 -26z m-26 -69 c3 -5 -1 -9
-9 -9 -8 0 -12 4 -9 9 3 4 7 8 9 8 2 0 6 -4 9 -8z m6 -42 c0 -5 -7 -10 -16
-10 -8 0 -12 5 -9 10 3 6 10 10 16 10 5 0 9 -4 9 -10z"/>
<path d="M3310 3209 c0 -5 5 -7 10 -4 6 3 10 8 10 11 0 2 -4 4 -10 4 -5 0 -10
-5 -10 -11z"/>
<path d="M3610 3076 c0 -2 7 -7 16 -10 8 -3 12 -2 9 4 -6 10 -25 14 -25 6z"/>
<path d="M3526 2733 c-6 -14 -5 -15 5 -6 7 7 10 15 7 18 -3 3 -9 -2 -12 -12z"/>
<path d="M3516 2632 c-3 -5 1 -9 9 -9 8 0 12 4 9 9 -3 4 -7 8 -9 8 -2 0 -6 -4
-9 -8z"/>
<path d="M3281 2486 c-1 -26 4 -49 12 -57 15 -15 17 -21 17 -46 0 -30 17 -48
32 -36 7 6 21 9 32 7 14 -2 16 0 7 9 -6 6 -11 23 -11 38 0 18 -12 38 -35 60
-19 19 -35 39 -35 46 0 6 -4 14 -8 17 -5 3 -9 -15 -11 -38z"/>
<path d="M3133 2316 c-17 -24 -34 -53 -38 -65 -5 -16 -12 -20 -31 -15 -20 5
-24 2 -24 -15 0 -12 -5 -21 -11 -21 -6 0 -8 -7 -5 -16 3 -8 2 -12 -4 -9 -9 6
-16 -27 -10 -50 6 -22 0 -50 -12 -60 -7 -5 -13 -15 -13 -21 0 -7 -18 -33 -40
-60 -22 -26 -41 -57 -41 -68 -6 -95 -16 -201 -21 -209 -3 -5 -9 -3 -14 4 -10
17 -87 20 -93 4 -5 -15 -46 -27 -46 -14 0 5 -9 9 -20 9 -25 0 -40 -35 -40 -95
0 -24 -4 -47 -10 -50 -5 -3 -10 -17 -10 -31 0 -14 -7 -38 -15 -54 -11 -22 -12
-30 -3 -30 6 0 3 -7 -8 -15 -10 -8 -15 -15 -10 -15 5 0 3 -7 -4 -15 -6 -8 -9
-19 -6 -24 4 -6 -3 -15 -14 -21 -16 -9 -22 -8 -26 5 -3 8 -3 22 0 31 5 13 3
14 -7 6 -10 -8 -13 -6 -14 11 -3 28 -23 67 -36 67 -16 0 -36 33 -37 61 0 28
-27 101 -40 109 -4 3 -10 21 -13 41 -2 19 -10 45 -16 57 -6 12 -8 22 -2 22 12
0 23 44 15 63 -7 19 -48 37 -84 37 -16 0 -32 5 -35 10 -4 6 -11 7 -17 4 -7 -4
-8 -2 -4 5 4 6 12 8 18 5 6 -4 8 -2 5 4 -8 12 2 42 14 42 8 0 40 25 73 56 6 5
18 13 27 16 9 4 24 21 33 39 15 29 15 35 1 56 -9 12 -23 23 -32 23 -9 0 -24 7
-34 16 -16 14 -16 20 -4 54 12 35 12 40 -7 60 -18 19 -28 21 -84 17 -62 -5
-64 -5 -64 19 0 17 -6 24 -20 24 -11 0 -20 -4 -20 -10 0 -5 -11 -10 -25 -10
-14 0 -25 -4 -25 -10 0 -5 -9 -10 -21 -10 -11 0 -18 -3 -16 -7 6 -10 -19 -34
-27 -26 -3 4 -6 1 -6 -5 0 -7 -6 -12 -14 -12 -16 0 -29 -27 -16 -35 4 -3 11 1
13 7 4 9 6 8 6 -2 1 -8 -9 -20 -21 -25 -13 -6 -22 -16 -21 -23 2 -7 -4 -9 -14
-5 -12 5 -14 3 -8 -7 6 -10 4 -12 -8 -7 -12 5 -17 1 -17 -12 0 -11 5 -21 10
-23 6 -2 12 -13 12 -24 2 -16 7 -20 22 -16 13 3 17 1 12 -6 -5 -8 2 -12 21
-12 16 0 23 -3 16 -8 -17 -11 -28 -62 -13 -62 6 0 8 5 5 11 -5 7 5 9 26 7 30
-3 34 -6 34 -33 0 -24 -5 -31 -24 -33 -13 -2 -21 0 -18 5 8 12 -64 13 -80 1
-7 -5 -14 -5 -18 2 -3 5 -17 10 -31 10 -13 0 -24 4 -24 10 0 5 8 7 18 4 14 -5
14 -4 2 4 -8 6 -17 9 -21 7 -3 -3 -41 -5 -84 -7 -43 -1 -72 -4 -64 -7 12 -5
16 -28 11 -69 -1 -7 -16 -26 -34 -42 -24 -23 -29 -32 -20 -43 7 -9 8 -23 3
-43 -6 -16 -10 -21 -10 -11 -1 10 -6 15 -11 12 -8 -5 -7 -12 1 -22 11 -13 15
-13 27 4 12 16 13 15 6 -12 -4 -16 -12 -33 -18 -37 -7 -5 -5 -8 6 -8 9 0 15
-7 14 -15 -2 -15 -35 -44 -48 -41 -3 0 -10 -3 -15 -8 -5 -5 -3 -6 5 -2 6 4 12
3 12 -2 0 -5 -11 -15 -25 -22 -18 -10 -22 -16 -13 -22 9 -5 5 -8 -12 -8 -20 0
-22 -2 -10 -10 13 -8 11 -11 -7 -16 -26 -7 -31 -32 -8 -40 8 -4 15 -17 15 -31
0 -16 -4 -22 -12 -17 -7 4 -8 3 -4 -5 4 -6 12 -9 17 -6 5 4 9 -1 9 -9 0 -9 -9
-16 -20 -16 -11 0 -20 -6 -20 -14 0 -8 -19 -30 -42 -49 -40 -33 -42 -37 -29
-60 11 -21 11 -30 -2 -56 -9 -17 -11 -29 -6 -26 5 4 9 1 9 -5 0 -6 -11 -16
-25 -22 -14 -6 -25 -20 -25 -30 0 -11 -4 -17 -8 -14 -9 6 -7 -72 3 -104 4 -11
11 -17 17 -14 6 4 6 -1 -1 -14 -9 -17 -6 -24 15 -44 14 -12 35 -33 47 -45 11
-13 26 -23 33 -23 7 0 19 -6 26 -12 7 -7 22 -14 33 -15 11 -1 36 -5 55 -8 75
-14 188 -17 209 -5 25 13 24 33 -3 112 -18 51 -14 69 21 99 24 22 403 70 403
52 0 -5 37 -10 83 -11 145 -4 226 -21 283 -57 48 -32 51 -36 57 -86 5 -44 2
-61 -18 -103 -14 -28 -42 -69 -63 -90 -56 -60 -78 -149 -51 -208 10 -24 79
-78 98 -78 10 0 45 -14 126 -51 22 -10 58 -21 80 -25 22 -4 47 -10 55 -14 19
-10 215 -30 333 -34 l89 -3 34 36 c19 20 34 39 34 43 0 5 10 19 22 33 37 43
99 64 268 90 14 2 37 4 53 4 40 1 67 33 67 81 0 22 5 40 10 40 6 0 10 9 10 20
0 21 46 102 61 108 5 2 9 10 9 18 0 8 6 14 13 14 8 0 20 11 27 25 7 14 19 25
27 25 7 0 12 3 11 8 -1 4 5 21 14 37 8 17 18 45 21 63 5 25 3 32 -9 32 -10 0
-14 -6 -10 -15 3 -8 1 -15 -4 -15 -6 0 -10 6 -10 13 0 9 -10 12 -30 9 -17 -2
-36 1 -44 7 -16 13 -27 4 -19 -17 5 -11 3 -13 -8 -7 -8 4 -11 5 -7 0 12 -12
-11 -45 -31 -45 -11 0 -22 -7 -25 -16 -3 -8 -2 -13 2 -10 5 3 9 0 9 -7 0 -7
-8 -13 -18 -13 -10 0 -15 4 -13 8 3 4 0 8 -5 8 -6 0 -11 -4 -11 -10 0 -5 -8
-10 -17 -9 -11 0 -13 3 -5 6 6 2 12 9 12 14 0 16 -34 5 -57 -18 -24 -25 -39
-31 -26 -10 4 6 -4 4 -19 -5 -29 -19 -38 -15 -38 18 0 17 -4 22 -15 18 -9 -4
-18 2 -24 17 -5 13 -18 35 -30 48 -14 16 -21 38 -21 66 0 23 -3 45 -7 49 -5 4
-8 11 -9 14 -2 20 -18 42 -30 42 -7 0 -17 6 -21 13 -4 7 -18 20 -29 28 -12 8
-22 19 -23 24 -5 34 -14 45 -41 45 -31 0 -93 -23 -85 -32 3 -3 -1 -8 -9 -11
-22 -9 -32 14 -12 28 14 11 15 14 1 25 -8 7 -15 18 -15 25 0 7 -7 15 -15 19
-8 3 -15 10 -15 16 0 14 27 13 33 -2 3 -10 7 -10 20 0 9 8 21 11 26 8 5 -4 12
-2 16 4 3 6 0 13 -8 16 -15 5 -19 34 -5 34 4 0 8 5 8 11 0 5 -5 7 -12 3 -8 -5
-9 -2 -5 10 4 10 7 20 7 22 0 2 7 4 15 4 17 0 55 -77 56 -113 0 -21 1 -21 8
-2 5 11 5 25 0 31 -14 17 -13 66 1 105 11 32 16 35 44 31 38 -6 86 -38 86 -58
0 -12 9 -14 45 -8 32 4 51 2 68 -9 19 -13 113 -30 101 -18 -2 2 0 9 6 15 5 7
6 16 2 21 -10 14 -119 86 -163 109 -21 10 -45 33 -55 52 -13 24 -26 34 -42 34
-15 0 -21 -4 -16 -11 5 -8 2 -9 -11 -1 -14 7 -27 5 -51 -8 -31 -18 -33 -18
-49 -1 -24 28 -32 89 -11 97 9 3 13 11 9 17 -4 6 0 8 9 5 8 -4 21 2 29 13 8
12 20 17 32 13 23 -7 64 -49 70 -71 3 -12 5 -9 6 9 2 39 11 57 27 51 8 -3 14
-1 14 3 0 5 25 7 55 6 45 -3 55 -1 55 12 0 23 -51 54 -97 58 -7 1 -13 5 -13
10 0 5 -4 7 -8 4 -9 -6 -88 39 -84 48 6 15 1 17 -13 6 -13 -11 -15 -10 -9 6 4
13 -4 9 -25 -13 -29 -31 -31 -32 -60 -17 -17 9 -31 19 -31 24 0 4 -17 6 -37 3
-29 -4 -44 0 -61 15 -13 11 -23 22 -22 24 1 2 -4 17 -10 33 -7 17 -14 24 -17
18 -3 -7 -17 -13 -33 -13 -18 0 -27 5 -25 13 9 38 18 57 27 57 5 0 7 8 4 18
-4 12 3 29 19 48 14 16 30 34 35 41 12 15 13 63 1 63 -4 0 -14 20 -21 45 -7
25 -17 45 -21 45 -5 0 -9 6 -9 14 0 13 -20 26 -39 26 -4 0 -21 -20 -38 -44z
m-1123 -231 c0 -8 -4 -15 -10 -15 -5 0 -7 7 -4 15 4 8 8 15 10 15 2 0 4 -7 4
-15z m-298 -477 c-7 -7 -12 -8 -12 -2 0 6 3 14 7 17 3 4 9 5 12 2 2 -3 -1 -11
-7 -17z m1023 -8 c0 -7 -6 -15 -13 -18 -8 -2 -10 2 -5 14 5 13 3 15 -7 9 -9
-5 -11 -4 -6 4 10 15 31 9 31 -9z m-6 -76 c3 -19 3 -19 -18 0 -12 11 -21 14
-21 8 0 -7 4 -12 10 -12 11 0 6 -61 -8 -105 l-10 -30 -1 28 c-1 16 -5 26 -11
22 -6 -4 -7 1 -3 11 6 16 9 42 12 86 1 25 45 17 50 -8z m-1042 -26 c-3 -7 -5
-2 -5 12 0 14 2 19 5 13 2 -7 2 -19 0 -25z m1831 -426 c2 -15 -2 -22 -12 -22
-9 0 -16 4 -16 9 0 5 -3 16 -6 24 -4 11 0 15 13 13 10 -2 19 -13 21 -24z m192
-217 c0 -8 -4 -15 -10 -15 -5 0 -7 7 -4 15 4 8 8 15 10 15 2 0 4 -7 4 -15z
m51 -2 c13 -16 12 -17 -3 -4 -10 7 -18 15 -18 17 0 8 8 3 21 -13z"/>
<path d="M2851 2270 c2 -31 -1 -40 -15 -40 -8 0 -17 8 -20 17 -6 14 -10 12
-26 -12 -11 -17 -20 -26 -20 -22 0 5 -7 2 -15 -7 -8 -8 -15 -19 -15 -25 0 -6
-8 -11 -18 -11 -10 0 -28 -11 -40 -25 -12 -14 -19 -25 -16 -25 4 0 -5 -9 -20
-21 -14 -11 -24 -24 -22 -28 3 -4 -4 -8 -15 -8 -26 -2 -50 -28 -43 -46 6 -17
38 -16 40 1 1 7 2 17 3 22 0 5 4 9 9 8 4 -2 41 31 82 73 49 50 81 76 93 74 13
-2 17 1 13 11 -3 8 -1 14 4 14 6 0 10 -7 10 -16 0 -14 3 -14 15 -4 23 19 28 6
8 -18 -56 -66 -54 -62 -37 -69 8 -3 27 0 41 8 21 11 24 19 20 45 -3 18 1 44 9
59 17 32 18 55 3 55 -5 0 -7 -4 -4 -10 3 -5 2 -10 -4 -10 -5 0 -12 6 -15 13
-4 8 -5 7 -5 -3z"/>
<path d="M3586 1398 c3 -4 9 -8 15 -8 5 0 9 4 9 8 0 5 -7 9 -15 9 -8 0 -12 -4
-9 -9z"/>
</g>
</svg>
